<svg width="50" height="50" viewBox="0 0 50 50" fill="none" xmlns="http://www.w3.org/2000/svg">
<rect width="50" height="50" rx="25" fill="#D8E9FF"/>
<path d="M18 22V30M22.5 22V30M27.5 22V30M32 22V30M16 31.6L16 32.4C16 32.9601 16 33.2401 16.109 33.454C16.2049 33.6422 16.3578 33.7952 16.546 33.891C16.7599 34 17.0399 34 17.6 34H32.4C32.9601 34 33.2401 34 33.454 33.891C33.6422 33.7952 33.7951 33.6422 33.891 33.454C34 33.2401 34 32.9601 34 32.4V31.6C34 31.04 34 30.7599 33.891 30.546C33.7951 30.3579 33.6422 30.2049 33.454 30.109C33.2401 30 32.9601 30 32.4 30H17.6C17.0399 30 16.7599 30 16.546 30.109C16.3578 30.2049 16.2049 30.3579 16.109 30.546C16 30.7599 16 31.04 16 31.6ZM24.6529 16.0772L17.2529 17.7216C16.8059 17.8209 16.5823 17.8706 16.4155 17.9908C16.2683 18.0969 16.1527 18.2409 16.0811 18.4076C16 18.5965 16 18.8255 16 19.2835L16 20.4C16 20.9601 16 21.2401 16.109 21.454C16.2049 21.6422 16.3578 21.7952 16.546 21.891C16.7599 22 17.0399 22 17.6 22H32.4C32.9601 22 33.2401 22 33.454 21.891C33.6422 21.7952 33.7951 21.6422 33.891 21.454C34 21.2401 34 20.9601 34 20.4V19.2835C34 18.8255 34 18.5965 33.9188 18.4076C33.8473 18.2409 33.7317 18.0969 33.5845 17.9908C33.4177 17.8706 33.1942 17.8209 32.7471 17.7216L25.3471 16.0772C25.2176 16.0484 25.1528 16.034 25.0874 16.0282C25.0292 16.0231 24.9708 16.0231 24.9126 16.0282C24.8472 16.034 24.7824 16.0484 24.6529 16.0772Z" stroke="#2261FE" stroke-width="2" stroke-linecap="round" stroke-linejoin="round"/>
</svg>
