<svg width="45" height="45" viewBox="0 0 45 45" fill="none" xmlns="http://www.w3.org/2000/svg">
<rect x="0.5" y="0.5" width="44" height="44" rx="22" fill="white"/>
<rect x="0.5" y="0.5" width="44" height="44" rx="22" stroke="#E7E7E7"/>
<path d="M15.5 19.5V27.5M20 19.5V27.5M25 19.5V27.5M29.5 19.5V27.5M13.5 29.1L13.5 29.9C13.5 30.46 13.5 30.7401 13.609 30.954C13.7049 31.1421 13.8578 31.2951 14.046 31.391C14.2599 31.5 14.5399 31.5 15.1 31.5H29.9C30.4601 31.5 30.7401 31.5 30.954 31.391C31.1422 31.2951 31.2951 31.1421 31.391 30.954C31.5 30.7401 31.5 30.46 31.5 29.9V29.1C31.5 28.5399 31.5 28.2599 31.391 28.046C31.2951 27.8578 31.1422 27.7049 30.954 27.609C30.7401 27.5 30.4601 27.5 29.9 27.5H15.1C14.5399 27.5 14.2599 27.5 14.046 27.609C13.8578 27.7049 13.7049 27.8578 13.609 28.046C13.5 28.2599 13.5 28.5399 13.5 29.1ZM22.1529 13.5771L14.7529 15.2216C14.3059 15.3209 14.0823 15.3706 13.9155 15.4908C13.7683 15.5968 13.6527 15.7409 13.5811 15.9076C13.5 16.0965 13.5 16.3255 13.5 16.7835L13.5 17.9C13.5 18.46 13.5 18.7401 13.609 18.954C13.7049 19.1421 13.8578 19.2951 14.046 19.391C14.2599 19.5 14.5399 19.5 15.1 19.5H29.9C30.4601 19.5 30.7401 19.5 30.954 19.391C31.1422 19.2951 31.2951 19.1421 31.391 18.954C31.5 18.7401 31.5 18.46 31.5 17.9V16.7835C31.5 16.3255 31.5 16.0965 31.4188 15.9076C31.3473 15.7409 31.2317 15.5968 31.0845 15.4908C30.9177 15.3706 30.6942 15.3209 30.2471 15.2216L22.8471 13.5771C22.7176 13.5483 22.6528 13.5339 22.5874 13.5282C22.5292 13.5231 22.4708 13.5231 22.4126 13.5282C22.3472 13.5339 22.2824 13.5483 22.1529 13.5771Z" stroke="#34C759" stroke-width="2" stroke-linecap="round" stroke-linejoin="round"/>
</svg>
