<svg width="45" height="45" viewBox="0 0 45 45" fill="none" xmlns="http://www.w3.org/2000/svg">
<mask id="mask0_1599_2257" style="mask-type:luminance" maskUnits="userSpaceOnUse" x="0" y="0" width="45" height="45">
<path d="M45 0H0V45H45V0Z" fill="white"/>
</mask>
<g mask="url(#mask0_1599_2257)">
<path d="M22.5003 45C34.9266 45 45.0003 34.9265 45.0003 22.5C45.0003 10.0737 34.9266 9.15527e-05 22.5003 9.15527e-05C10.0738 9.15527e-05 0.000244141 10.0737 0.000244141 22.5C0.000244141 34.9265 10.0738 45 22.5003 45Z" fill="#23CC00"/>
<path d="M22.4193 37.6857C27.7059 37.6857 32.1834 34.2873 33.8556 29.5938H30.5652C29.109 32.6151 25.9797 34.6644 22.4193 34.6644C17.4027 34.6644 13.3023 30.5649 13.3023 25.5474C13.3023 21.9871 15.3525 18.8578 18.3729 17.4016V14.1112C13.6794 15.7834 10.281 20.2609 10.281 25.5474C10.281 32.2371 15.7296 37.6857 22.4193 37.6857ZM29.3781 22.851V18.4276C30.8883 18.8056 32.0754 19.2907 32.0754 20.5858C32.0754 21.7729 31.0503 22.6359 29.3781 22.851ZM27.3288 26.9505H29.487V25.2783C32.6694 24.9003 34.7196 23.0661 34.7196 20.5849C34.7196 17.1325 31.9683 16.3774 29.379 15.8914V11.3059C30.6201 11.4139 31.9683 11.791 33.2094 12.385V9.68766C32.0223 9.25566 30.7281 8.98656 29.487 8.93256V7.31436H27.3288V8.93256C24.0384 9.31056 22.1502 11.1448 22.1502 13.4641C22.1502 16.9705 24.8475 17.7796 27.4368 18.2656V22.851C25.8726 22.635 24.2004 21.988 22.2582 20.9629V23.8221C23.9304 24.6312 25.6566 25.1712 27.3288 25.2783V26.9505ZM27.4368 15.6763C25.9266 15.3523 24.7935 14.8132 24.7935 13.4641C24.7935 12.223 25.7646 11.4679 27.4368 11.3059V15.6754V15.6763Z" fill="white"/>
</g>
</svg>
