<svg width="50" height="52" viewBox="0 0 50 52" fill="none" xmlns="http://www.w3.org/2000/svg">
<ellipse cx="25" cy="26" rx="26" ry="25" transform="rotate(90 25 26)" fill="#CCE0FF"/>
<path d="M27 23H24.5C23.6716 23 23 23.6716 23 24.5C23 25.3284 23.6716 26 24.5 26H25.5C26.3284 26 27 26.6716 27 27.5C27 28.3284 26.3284 29 25.5 29H23M25 22V23M25 29V30M31 26H31.01M19 26H19.01M15 22.2L15 29.8C15 30.9201 15 31.4802 15.218 31.908C15.4097 32.2843 15.7157 32.5903 16.092 32.782C16.5198 33 17.0799 33 18.2 33L31.8 33C32.9201 33 33.4802 33 33.908 32.782C34.2843 32.5903 34.5903 32.2843 34.782 31.908C35 31.4802 35 30.9201 35 29.8V22.2C35 21.0799 35 20.5198 34.782 20.092C34.5903 19.7157 34.2843 19.4097 33.908 19.218C33.4802 19 32.9201 19 31.8 19L18.2 19C17.0799 19 16.5198 19 16.092 19.218C15.7157 19.4097 15.4097 19.7157 15.218 20.092C15 20.5198 15 21.0799 15 22.2ZM31.5 26C31.5 26.2761 31.2761 26.5 31 26.5C30.7239 26.5 30.5 26.2761 30.5 26C30.5 25.7239 30.7239 25.5 31 25.5C31.2761 25.5 31.5 25.7239 31.5 26ZM19.5 26C19.5 26.2761 19.2761 26.5 19 26.5C18.7239 26.5 18.5 26.2761 18.5 26C18.5 25.7239 18.7239 25.5 19 25.5C19.2761 25.5 19.5 25.7239 19.5 26Z" stroke="#2261FE" stroke-width="2" stroke-linecap="round" stroke-linejoin="round"/>
</svg>
