<svg width="50" height="52" viewBox="0 0 50 52" fill="none" xmlns="http://www.w3.org/2000/svg">
<ellipse cx="25" cy="26" rx="26" ry="25" transform="rotate(90 25 26)" fill="#CCE0FF"/>
<path d="M32 33L18 19M30 23C28.8954 23 28 22.1046 28 21C28 19.8954 28.8954 19 30 19C31.1046 19 32 19.8954 32 21C32 22.1046 31.1046 23 30 23ZM20 33C18.8954 33 18 32.1046 18 31C18 29.8954 18.8954 29 20 29C21.1046 29 22 29.8954 22 31C22 32.1046 21.1046 33 20 33Z" stroke="#2261FE" stroke-width="2" stroke-linecap="round" stroke-linejoin="round"/>
</svg>
