<svg width="278" height="61" viewBox="0 0 278 61" fill="none" xmlns="http://www.w3.org/2000/svg">
<g clip-path="url(#clip0_1428_4203)">
<path d="M67.5571 50.1818V11.6715H93.4773V17.5962H74.4342V28.1222H92.1016V33.8894H74.4342V50.1818H67.5571Z" fill="#F5F5F5"/>
<path d="M93.6475 50.1818L109.199 28.0172V33.0953L94.7057 11.6715H102.534L107.242 18.8128C107.824 19.6585 108.353 20.5052 108.882 21.3518C109.464 22.1984 109.993 23.0442 110.522 23.8917C111.051 24.6849 111.581 25.5316 112.056 26.3782H110.469C110.998 25.5316 111.527 24.6858 112.056 23.8917C112.586 23.045 113.167 22.1993 113.696 21.3518C114.225 20.506 114.807 19.6594 115.336 18.8128L120.203 11.6715H127.821L113.486 32.7253V27.8589L128.773 50.1818H120.892L114.967 41.454C114.491 40.7132 114.015 39.9724 113.539 39.2325C113.01 38.4917 112.534 37.8042 112.057 37.0634C111.581 36.3226 111.105 35.5818 110.629 34.8419H111.792C111.316 35.5827 110.84 36.3235 110.364 37.0634C109.888 37.8042 109.359 38.4917 108.882 39.2325C108.407 39.9733 107.877 40.7141 107.401 41.454L101.37 50.1818H93.6466H93.6475Z" fill="#F5F5F5"/>
<path d="M145.509 50.1818V11.6715H160.532C163.389 11.6715 165.822 12.2006 167.884 13.2056C169.948 14.2105 171.534 15.6388 172.646 17.437C173.757 19.2886 174.286 21.4576 174.286 23.9966C174.286 26.4832 173.703 28.6514 172.54 30.5038C171.377 32.302 169.683 33.7303 167.567 34.6827C165.451 35.6868 162.965 36.1643 160.109 36.1643H149.582V30.5571H160.215C161.748 30.5571 163.018 30.293 164.13 29.7638C165.24 29.1814 166.087 28.4414 166.669 27.489C167.304 26.484 167.568 25.3199 167.568 23.9975C167.568 22.6759 167.304 21.5118 166.669 20.5602C166.087 19.5553 165.24 18.8145 164.13 18.2853C163.018 17.7562 161.696 17.492 160.162 17.492H152.386V50.1835H145.509V50.1818ZM167.515 50.1818L158.575 32.8311H165.875L175.027 50.1818H167.515Z" fill="#F5F5F5"/>
<path d="M188.818 50.8159C186.12 50.8159 183.74 50.1818 181.783 48.9652C179.772 47.7486 178.238 46.0562 177.128 43.9405C176.07 41.7715 175.54 39.3374 175.54 36.5876C175.54 33.7836 176.07 31.3504 177.181 29.1813C178.292 27.0123 179.826 25.3732 181.783 24.1033C183.741 22.8867 186.015 22.3042 188.554 22.3042C190.511 22.3042 192.309 22.6217 193.897 23.3092C195.537 23.9966 196.913 24.9499 198.076 26.2182C199.187 27.4881 200.087 29.0222 200.721 30.7146C201.355 32.4603 201.62 34.3644 201.62 36.4801V38.2258H178.08V33.7294H198.393L195.483 34.946C195.483 33.4128 195.167 32.0895 194.638 30.9796C194.055 29.868 193.315 28.9688 192.258 28.3872C191.253 27.7531 190.036 27.4348 188.66 27.4348C187.285 27.4348 186.121 27.7522 185.062 28.3872C184.057 28.9697 183.264 29.8688 182.735 30.9796C182.206 32.0903 181.888 33.4128 181.888 34.946V37.8033C181.888 39.3366 182.206 40.7123 182.735 41.9289C183.264 43.0922 184.11 44.0446 185.168 44.6796C186.226 45.3137 187.496 45.6837 188.976 45.6837C190.088 45.6837 191.04 45.5254 191.885 45.1554C192.732 44.8379 193.419 44.4146 194.002 43.7797C194.53 43.198 194.954 42.5097 195.218 41.7698H201.301C200.984 43.5147 200.19 45.1021 199.027 46.477C197.863 47.7994 196.435 48.8569 194.689 49.651C192.89 50.3918 190.986 50.8142 188.817 50.8142L188.818 50.8159Z" fill="#F5F5F5"/>
<path d="M205.783 50.1819V22.8867H212.131V28.8639H211.656C212.131 27.3832 212.819 26.2191 213.666 25.2141C214.565 24.2617 215.57 23.5742 216.734 23.0984C217.846 22.5693 219.063 22.3576 220.333 22.3576C222.448 22.3576 224.247 22.9401 225.781 24.1567C227.262 25.3733 228.214 26.9065 228.531 28.8639H227.685C228.056 27.5423 228.69 26.4307 229.536 25.4266C230.435 24.4733 231.494 23.7342 232.71 23.1517C233.98 22.6226 235.355 22.3585 236.889 22.3585C238.582 22.3585 240.116 22.7293 241.544 23.4701C242.919 24.2109 243.977 25.3208 244.77 26.8024C245.617 28.2306 245.987 30.0297 245.987 32.1979V50.1835H239.481V33.097C239.481 31.2979 238.952 29.9764 237.999 29.1297C236.994 28.3373 235.83 27.9131 234.402 27.9131C233.344 27.9131 232.391 28.1248 231.598 28.6014C230.805 29.0772 230.17 29.7122 229.747 30.5588C229.271 31.4046 229.06 32.3571 229.06 33.4153V50.1835H222.712V32.8329C222.712 31.2988 222.288 30.1347 221.336 29.2356C220.437 28.3365 219.22 27.9131 217.792 27.9131C216.787 27.9131 215.888 28.1248 215.094 28.6014C214.248 29.0248 213.612 29.7122 213.083 30.6113C212.607 31.5113 212.342 32.6221 212.342 33.8911V50.1835H205.783L205.783 50.1819Z" fill="#F5F5F5"/>
<path d="M251.19 50.1819V22.8868H257.697V50.1819H251.19ZM254.418 18.8653C253.306 18.8653 252.354 18.4953 251.614 17.7545C250.873 17.0671 250.503 16.168 250.503 15.1097C250.503 14.1047 250.873 13.2056 251.614 12.5182C252.354 11.7774 253.306 11.4599 254.418 11.4599C255.528 11.4599 256.428 11.7774 257.168 12.5182C257.909 13.2056 258.279 14.1047 258.279 15.163C258.279 16.2205 257.909 17.0671 257.168 17.8079C256.428 18.4953 255.528 18.8653 254.418 18.8653Z" fill="#F5F5F5"/>
<path d="M277.149 22.8859V28.1223H260.274V22.8859H277.149ZM265.035 15.4797H271.595V42.3523C271.595 43.3048 271.753 43.9922 272.176 44.363C272.547 44.733 273.288 44.9447 274.346 44.9447C274.77 44.9447 275.245 44.9447 275.827 44.9447C276.356 44.9447 276.78 44.9447 277.15 44.9447V50.1819C276.674 50.1819 276.091 50.1819 275.35 50.1819C274.663 50.1819 273.922 50.1819 273.235 50.1819C270.432 50.1819 268.368 49.5994 267.045 48.4895C265.724 47.3787 265.035 45.633 265.035 43.3056V15.4814V15.4797Z" fill="#F5F5F5"/>
<path fill-rule="evenodd" clip-rule="evenodd" d="M0.000976562 28.0232L30.8197 13.4325V13.3546L31.0534 0L0.000976562 15.0826V28.0232Z" fill="#FF6600"/>
<path fill-rule="evenodd" clip-rule="evenodd" d="M57.9336 10.1865L0.00427246 32.9768V45.9165L57.9336 24.3835V10.1865Z" fill="#FF6600"/>
<path fill-rule="evenodd" clip-rule="evenodd" d="M57.9302 50.8134L0.000854492 28.0215V15.0826L57.9302 36.6164V50.8134Z" fill="#2261FE"/>
<path fill-rule="evenodd" clip-rule="evenodd" d="M0.00427246 32.976L30.823 47.5666V47.6445L31.0567 61L0.00427246 45.9166V32.976Z" fill="#2261FE"/>
</g>
<defs>
<clipPath id="clip0_1428_4203">
<rect width="277.141" height="61" fill="white"/>
</clipPath>
</defs>
</svg>
