<svg width="430" height="932" viewBox="0 0 430 932" fill="none" xmlns="http://www.w3.org/2000/svg">
<mask id="mask0_1428_4194" style="mask-type:luminance" maskUnits="userSpaceOnUse" x="-249" y="-122" width="822" height="1156">
<path d="M409.457 -122L572.206 931.531L-86.2509 1033.25L-249 -20.2818L409.457 -122Z" fill="white"/>
</mask>
<g mask="url(#mask0_1428_4194)">
<path fill-rule="evenodd" clip-rule="evenodd" d="M356.009 -292.253L356.01 -292.252L353.365 -280.51L347.303 -290.901L347.303 -290.902L347.302 -290.902L324.563 -287.389L306.486 -228.723L329.894 -232.76L330.031 -232.781L338.722 -262.027L346.188 -248.652L331.685 -184.26L356.635 -188.114L362.916 -218.69L378.133 -191.43L403.082 -195.284L369.82 -252.301L372.904 -267.312L390.016 -242.052L390.153 -242.074L413.686 -245.289L378.749 -295.766L356.01 -292.253L356.009 -292.253ZM-267.979 -97.5283L-267.979 -97.5305L-258.068 -104.356L-260.669 -92.6123L-260.671 -92.6109L-260.67 -92.61L-241.588 -79.7547L-241.587 -79.7548L-188.491 -110.565L-208.418 -123.488L-208.533 -123.566L-234.768 -107.991L-231.172 -122.88L-176.813 -160.317L-197.751 -174.423L-223.116 -156.236L-215.787 -186.582L-236.725 -200.688L-251.004 -136.241L-263.456 -127.312L-258.876 -157.476L-258.991 -157.553L-278.454 -171.166L-287.064 -110.385L-287.064 -110.384L-267.981 -97.5291L-267.979 -97.5283ZM-214.332 28.3856L-214.335 28.3828L-211.69 16.6417L-205.627 27.0334L-205.628 27.0346L-205.627 27.0345L-182.888 23.5217L-164.811 -35.1452L-188.218 -31.1078L-188.355 -31.0867L-197.047 -1.8396L-204.514 -15.2153L-190.009 -79.6071L-214.957 -75.753L-221.239 -45.1754L-236.458 -72.4369L-261.407 -68.5828L-228.145 -11.5648L-231.228 3.44492L-248.34 -21.8149L-248.477 -21.7937L-272.011 -18.5796L-237.074 31.8987L-214.336 28.3861L-214.332 28.3856ZM-231.672 137.5L-231.672 137.498L-221.761 130.672L-224.362 142.416L-224.364 142.418L-224.363 142.419L-205.281 155.274L-205.28 155.274L-152.184 124.464L-172.111 111.541L-172.226 111.463L-198.461 127.038L-194.865 112.149L-140.506 74.711L-161.444 60.605L-186.808 78.7913L-179.48 48.447L-200.418 34.3409L-214.696 98.7869L-227.149 107.717L-222.569 77.5527L-222.684 77.476L-242.147 63.8619L-250.757 124.643L-250.757 124.644L-231.674 137.499L-231.672 137.5ZM-178.026 263.409L-178.029 263.406L-175.383 251.665L-169.321 262.057L-169.322 262.058L-169.321 262.058L-146.582 258.545L-128.505 199.878L-151.911 203.916L-152.048 203.937L-160.741 233.184L-168.208 219.808L-153.702 155.416L-178.651 159.27L-184.933 189.848L-200.152 162.586L-225.101 166.441L-191.839 223.459L-194.922 238.467L-212.034 213.207L-212.17 213.229L-235.705 216.444L-200.767 266.922L-178.029 263.409L-178.026 263.409ZM-195.366 372.524L-195.365 372.521L-185.455 365.696L-188.056 377.44L-188.058 377.441L-188.057 377.442L-168.974 390.297L-168.973 390.297L-115.877 359.487L-135.805 346.564L-135.92 346.485L-162.154 362.061L-158.558 347.172L-104.199 309.734L-125.137 295.628L-150.503 313.815L-143.173 283.469L-164.111 269.364L-178.39 333.81L-190.843 342.74L-186.263 312.576L-186.378 312.499L-205.84 298.885L-214.451 359.667L-214.45 359.668L-195.367 372.523L-195.366 372.524ZM-141.72 498.431L-141.723 498.429L-139.077 486.688L-133.015 497.079L-133.016 497.08L-133.015 497.08L-110.276 493.567L-92.1986 434.902L-115.605 438.938L-115.742 438.959L-124.435 468.206L-131.902 454.831L-117.396 390.44L-142.345 394.294L-148.627 424.87L-163.845 397.61L-188.794 401.464L-155.532 458.482L-158.616 473.491L-175.727 448.231L-175.864 448.252L-199.399 451.467L-164.461 501.944L-141.723 498.432L-141.72 498.431ZM-159.06 607.547L-159.059 607.545L-149.148 600.719L-151.75 612.463L-151.752 612.464L-151.75 612.465L-132.668 625.321L-132.667 625.321L-79.5711 594.511L-99.4984 581.586L-99.6135 581.509L-125.847 597.085L-122.252 582.195L-67.8928 544.758L-88.8308 530.652L-114.196 548.838L-106.867 518.493L-127.805 504.387L-142.084 568.835L-154.536 577.764L-149.956 547.6L-150.071 547.523L-169.534 533.909L-178.144 594.69L-178.144 594.691L-159.061 607.546L-159.06 607.547ZM-105.414 733.455L-105.416 733.452L-102.771 721.711L-96.7086 732.103L-96.7095 732.104L-96.7084 732.104L-73.9694 728.591L-55.8922 669.925L-79.2989 673.961L-79.4357 673.983L-88.1282 703.23L-95.5952 689.854L-81.0898 625.462L-106.039 629.316L-112.32 659.894L-127.539 632.633L-152.488 636.487L-119.226 693.505L-122.309 708.514L-139.421 683.254L-139.558 683.275L-163.092 686.491L-128.155 736.968L-105.417 733.455L-105.414 733.455ZM-122.753 842.57L-122.753 842.567L-112.841 835.742L-115.443 847.487L-115.445 847.488L-115.444 847.489L-96.3617 860.344L-96.3607 860.344L-43.2649 829.533L-63.1921 816.61L-63.3071 816.532L-89.5409 832.108L-85.9456 817.218L-31.5865 779.781L-52.5245 765.675L-77.889 783.862L-70.5606 753.516L-91.4986 739.41L-105.777 803.857L-118.23 812.786L-113.65 782.622L-113.765 782.546L-133.228 768.932L-141.837 829.712L-141.838 829.712L-141.838 829.714L-122.753 842.57ZM-69.1072 968.478L-69.1098 968.475L-66.4645 956.734L-60.4022 967.126L-60.4031 967.127L-60.4021 967.127L-37.663 963.614L-19.5859 904.948L-42.9925 908.985L-43.1294 909.006L-51.8219 938.253L-59.2889 924.877L-44.7834 860.485L-69.7322 864.34L-76.014 894.917L-91.2327 867.657L-116.182 871.511L-82.9195 928.529L-86.0029 943.537L-103.114 918.278L-103.251 918.299L-126.786 921.514L-91.8483 971.991L-69.1103 968.479L-69.1072 968.478ZM-86.4469 1077.59L-86.4463 1077.59L-76.5346 1070.76L-79.137 1082.51L-79.139 1082.51L-79.1378 1082.51L-79.1376 1082.51L-60.0555 1095.37L-60.0545 1095.37L-6.95855 1064.56L-26.8857 1051.63L-27.0008 1051.56L-53.2357 1067.13L-49.6393 1052.24L4.71987 1014.8L-16.2181 1000.7L-41.5837 1018.89L-34.2543 988.539L-55.1922 974.433L-69.4705 1038.88L-81.9239 1047.81L-77.3438 1017.65L-77.4587 1017.57L-96.9212 1003.96L-105.532 1064.74L-105.531 1064.74L-86.4482 1077.59L-86.4469 1077.59ZM-32.8009 1203.5L-32.8035 1203.5L-30.1581 1191.76L-24.0959 1202.15L-24.0968 1202.15L-24.0957 1202.15L-1.35662 1198.64L16.7205 1139.97L-6.68616 1144.01L-6.82302 1144.03L-15.5155 1173.28L-22.9825 1159.9L-8.47709 1095.51L-33.4258 1099.36L-39.7076 1129.94L-54.9265 1102.68L-79.8753 1106.53L-46.6133 1163.55L-49.6965 1178.56L-66.8081 1153.3L-66.945 1153.32L-90.4796 1156.54L-55.542 1207.01L-32.804 1203.5L-32.8009 1203.5ZM115.995 1082.18L115.994 1082.19L106.084 1089.01L108.686 1077.27L108.687 1077.27L89.6026 1064.41L36.5065 1095.22L56.4349 1108.14L56.5488 1108.22L82.7837 1092.65L79.1884 1107.54L24.8296 1144.97L45.7662 1159.08L71.1326 1140.89L63.8044 1171.24L84.7414 1185.34L99.0206 1120.9L111.473 1111.97L106.892 1142.13L107.007 1142.21L126.469 1155.82L135.08 1095.04L115.995 1082.18ZM62.3492 956.27L62.3505 956.271L59.7053 968.013L53.6444 957.624L53.6451 957.621L53.6431 957.622L30.904 961.134L12.827 1019.8L36.2345 1015.76L36.3714 1015.74L45.0631 986.498L52.5288 999.872L38.0254 1064.26L62.9752 1060.41L69.2563 1029.83L84.4738 1057.09L109.423 1053.24L76.1608 996.222L79.2448 981.211L96.3565 1006.47L96.4934 1006.45L120.027 1003.24L85.0893 952.758L62.3503 956.27L62.3492 956.27ZM79.688 847.156L79.6873 847.158L69.7766 853.984L72.3789 842.239L72.3799 842.239L53.2954 829.382L0.199311 860.191L20.1277 873.115L20.2417 873.193L46.4765 857.617L42.8813 872.507L-11.4775 909.946L9.45922 924.051L34.8255 905.862L27.4972 936.209L48.4343 950.315L62.7123 885.867L75.1657 876.938L70.5847 907.103L70.6996 907.18L90.1624 920.795L98.7724 860.012L79.688 847.156ZM26.0429 721.247L26.0441 721.248L23.399 732.99L17.338 722.6L17.3387 722.598L17.3367 722.598L-5.40238 726.111L-23.4794 784.778L-0.0718724 780.741L0.0650532 780.719L8.75678 751.474L16.2225 764.848L1.71904 829.24L26.6688 825.386L32.9499 794.81L48.1675 822.07L73.1162 818.216L39.8544 761.199L42.9385 746.188L60.0503 771.449L60.1872 771.427L83.7207 768.212L48.783 717.734L26.044 721.247L26.0429 721.247ZM43.3816 612.132L43.3809 612.135L33.4702 618.96L36.0725 607.215L36.0735 607.215L16.9891 594.359L-36.107 625.168L-16.1786 638.092L-16.0645 638.171L10.1703 622.595L6.57493 637.484L-47.7839 674.923L-26.8471 689.028L-1.48086 670.839L-8.80896 701.187L12.1279 715.292L26.406 650.844L38.8593 641.915L34.2784 672.08L34.3932 672.157L53.8561 685.772L62.4661 624.989L43.3816 612.132ZM-10.2633 486.225L-10.2621 486.226L-12.9072 497.968L-18.9682 487.578L-18.9675 487.576L-18.9695 487.576L-41.7086 491.089L-59.7858 549.755L-36.3781 545.718L-36.2412 545.697L-27.5496 516.451L-20.0837 529.826L-34.5873 594.216L-9.63753 590.362L-3.3563 559.788L11.8611 587.046L36.8099 583.192L3.54808 526.175L6.63214 511.164L23.7439 536.425L23.8808 536.404L47.4143 533.189L12.4768 482.712L-10.2622 486.224L-10.2633 486.225ZM7.07529 377.109L7.07458 377.111L-2.83612 383.937L-0.233848 372.192L-0.232852 372.192L-19.3173 359.336L-72.4134 390.144L-52.4848 403.07L-52.3709 403.148L-26.1361 387.571L-29.7314 402.461L-84.0903 439.899L-63.1535 454.004L-37.7872 435.816L-45.1153 466.163L-24.1783 480.269L-9.89931 415.82L2.55298 406.891L-2.02801 437.057L-1.91314 437.133L17.5497 450.749L26.1597 389.965L7.07529 377.109ZM-46.5697 251.201L-46.5684 251.202L-49.2136 262.944L-55.2745 252.554L-55.2738 252.552L-55.2759 252.553L-78.0149 256.065L-96.0921 314.731L-72.6844 310.695L-72.5475 310.674L-63.8559 281.428L-56.389 294.802L-70.8935 359.194L-45.9437 355.34L-39.6626 324.764L-24.4452 352.023L0.503529 348.169L-32.7583 291.152L-29.6742 276.141L-12.5624 301.402L-12.4256 301.381L11.108 298.166L-23.8296 247.688L-46.5686 251.201L-46.5697 251.201ZM-29.2311 142.086L-29.2316 142.089L-39.1423 148.915L-36.5402 137.168L-36.5392 137.168L-55.6236 124.312L-108.72 155.121L-88.7912 168.046L-88.6772 168.124L-62.4424 152.548L-66.0387 167.438L-120.397 204.876L-99.4599 218.981L-74.0936 200.792L-81.4217 231.14L-60.4846 245.246L-46.2057 180.797L-33.7534 171.868L-38.3342 202.034L-38.2195 202.11L-18.7567 215.725L-10.1466 154.942L-29.2311 142.086ZM-82.876 16.1778L-82.8748 16.1787L-85.52 27.9208L-91.5809 17.5311L-91.5802 17.5288L-91.5822 17.5291L-114.321 21.0419L-132.398 79.7077L-108.991 75.6713L-108.854 75.6501L-100.162 46.4043L-92.6954 59.7789L-107.2 124.171L-82.2501 120.316L-75.969 89.7409L-60.7516 116.999L-35.8028 113.145L-69.0646 56.1284L-65.9806 41.1175L-48.8688 66.3784L-48.7319 66.3572L-25.1984 63.1422L-60.1359 12.665L-82.875 16.1777L-82.876 16.1778ZM-65.5374 -92.9377L-65.538 -92.9345L-75.4487 -86.1088L-72.8464 -97.8539L-72.8454 -97.854L-91.9298 -110.71L-145.026 -79.9024L-125.098 -66.9772L-124.984 -66.8992L-98.7488 -82.4755L-102.344 -67.5852L-156.703 -30.1476L-135.766 -16.0424L-110.4 -34.2301L-117.728 -3.88364L-96.791 10.2225L-82.5119 -54.2257L-70.0606 -63.1541L-74.6406 -32.9891L-74.5257 -32.9124L-55.063 -19.2983L-46.4528 -80.0806L-65.5374 -92.9377ZM-119.182 -218.846L-119.181 -218.845L-121.826 -207.103L-127.887 -217.492L-127.887 -217.495L-127.889 -217.494L-150.628 -213.982L-168.705 -155.316L-145.297 -159.352L-145.16 -159.373L-136.468 -188.618L-129.003 -175.244L-143.506 -110.853L-118.556 -114.707L-112.275 -145.282L-97.0578 -118.023L-72.109 -121.877L-105.371 -178.894L-102.287 -193.905L-85.1751 -168.645L-85.0383 -168.666L-61.5047 -171.881L-96.4423 -222.358L-119.181 -218.846L-119.182 -218.846ZM-30.3834 -134.232L-30.3827 -134.234L-20.4712 -141.061L-23.0734 -129.316L-23.0753 -129.315L-23.0741 -129.314L-3.99295 -116.458L-3.99195 -116.458L49.1051 -147.268L29.1779 -160.192L29.0629 -160.27L2.82702 -144.693L6.42333 -159.584L60.7825 -197.02L39.8455 -211.126L14.4791 -192.939L21.8084 -223.285L0.871371 -237.391L-13.408 -172.944L-25.8603 -164.016L-21.2802 -194.18L-21.3961 -194.256L-40.8576 -207.869L-49.4681 -147.089L-49.4679 -147.088L-30.3857 -134.233L-30.3846 -134.233L-30.3834 -134.232ZM23.2625 -8.318L23.2611 -8.31992L25.9054 -20.0608L31.9675 -9.6702L31.9666 -9.66899L31.9677 -9.66916L54.7078 -13.182L72.7837 -71.8488L49.3773 -67.8115L49.2404 -67.7903L40.5486 -38.5455L33.0819 -51.919L47.5874 -116.311L22.6376 -112.457L16.3554 -81.8811L1.13792 -109.141L-23.8119 -105.286L9.45002 -48.2684L6.36686 -33.2587L-10.7447 -58.5185L-10.8816 -58.4974L-34.4153 -55.2834L0.521366 -4.80496L23.2604 -8.31768L23.2625 -8.318ZM5.92373 100.797L5.92444 100.794L15.836 93.9675L13.2337 105.713L13.2318 105.714L13.233 105.715L32.3142 118.57L32.3152 118.57L85.4123 87.7602L65.4851 74.8368L65.3701 74.759L39.1342 90.3355L42.7305 75.445L97.0895 38.0074L76.1525 23.9012L50.7871 42.0887L58.1155 11.7433L37.1785 -2.36283L22.9001 62.0831L10.4469 71.0129L15.027 40.849L14.9111 40.7724L-4.55057 27.1581L-13.1609 87.9394L-13.1608 87.9404L5.92149 100.796L5.92252 100.796L5.92373 100.797ZM59.5689 226.705L59.5675 226.703L62.2118 214.963L68.2739 225.353L68.273 225.354L68.2741 225.354L91.0141 221.841L109.09 163.175L85.6836 167.212L85.5467 167.233L76.855 196.478L69.3882 183.104L83.8937 118.713L58.9439 122.567L52.6618 153.142L37.4443 125.883L12.4944 129.737L45.7564 186.755L42.6731 201.764L25.5615 176.504L25.4246 176.525L1.89104 179.74L36.8277 230.218L59.5668 226.706L59.5689 226.705ZM42.2301 335.82L42.2308 335.818L52.1423 328.991L49.5401 340.736L49.5382 340.737L49.5394 340.738L68.6206 353.594L68.6216 353.594L121.719 322.784L101.791 309.86L101.676 309.781L75.4404 325.358L79.0369 310.468L133.396 273.031L112.459 258.925L87.0924 277.112L94.4217 246.766L73.4849 232.661L59.2065 297.107L46.7532 306.036L51.3333 275.872L51.2175 275.796L31.7558 262.182L23.1455 322.963L23.1456 322.964L42.2279 335.819L42.2289 335.819L42.2301 335.82ZM95.8751 461.728L95.8737 461.726L98.518 449.985L104.58 460.376L104.579 460.377L104.58 460.377L127.32 456.864L145.396 398.198L121.99 402.234L121.853 402.255L113.161 431.501L105.694 418.127L120.2 353.736L95.2503 357.59L88.9682 388.166L73.7506 360.906L48.8008 364.76L82.0627 421.778L78.9794 436.787L61.8678 411.527L61.7309 411.548L38.1974 414.763L73.1339 465.241L95.873 461.728L95.8751 461.728ZM78.5365 570.843L78.5372 570.841L88.4487 564.014L85.8464 575.759L85.8445 575.761L85.8457 575.762L104.927 588.617L104.928 588.617L158.025 557.807L138.098 544.883L137.983 544.805L111.747 560.381L115.343 545.492L169.702 508.054L148.765 493.948L123.399 512.136L130.728 481.789L109.791 467.683L95.5119 532.131L83.0596 541.06L87.6397 510.896L87.5238 510.819L68.0621 497.205L59.4518 557.986L59.452 557.987L78.5342 570.843L78.5352 570.843L78.5365 570.843ZM132.181 696.751L132.18 696.749L134.824 685.008L140.886 695.399L140.886 695.4L140.887 695.4L163.627 691.887L181.703 633.221L158.296 637.258L158.159 637.279L149.468 666.525L142.001 653.15L156.506 588.758L131.556 592.613L125.275 623.189L110.057 595.929L85.1071 599.784L118.369 656.802L115.286 671.811L98.1742 646.551L98.0373 646.572L74.5038 649.787L109.44 700.264L132.179 696.751L132.181 696.751ZM114.843 805.867L114.843 805.864L124.755 799.037L122.153 810.783L122.151 810.784L122.152 810.785L141.233 823.641L141.234 823.64L194.331 792.829L174.404 779.906L174.289 779.828L148.053 795.405L151.649 780.514L206.009 743.078L185.072 728.971L159.705 747.159L167.034 716.813L146.097 702.706L131.819 767.153L119.366 776.082L123.946 745.918L123.83 745.843L104.369 732.228L95.7591 793.008L95.758 793.009L95.7583 793.011L114.843 805.867ZM168.488 931.775L168.486 931.773L171.131 920.032L177.193 930.422L177.192 930.424L177.193 930.423L199.933 926.91L218.009 868.245L194.603 872.281L194.466 872.302L185.774 901.548L178.307 888.174L192.813 823.782L167.863 827.636L161.581 858.213L146.363 830.953L121.414 834.807L154.675 891.825L151.592 906.834L134.481 881.574L134.344 881.595L110.81 884.81L145.747 935.288L168.486 931.775L168.488 931.775ZM151.149 1040.89L151.15 1040.89L161.061 1034.06L158.459 1045.81L158.457 1045.81L158.458 1045.81L158.458 1045.81L177.539 1058.66L177.54 1058.66L230.638 1027.85L210.71 1014.93L210.595 1014.85L184.359 1030.43L187.956 1015.54L242.315 978.101L221.378 963.995L196.011 982.183L203.341 951.836L182.404 937.73L168.126 1002.18L155.672 1011.11L160.252 980.942L160.136 980.865L140.675 967.252L132.064 1028.03L132.065 1028.03L151.147 1040.89L151.149 1040.89ZM204.794 1166.8L204.793 1166.8L207.437 1155.06L213.499 1165.45L213.498 1165.45L213.499 1165.45L236.239 1161.93L254.316 1103.27L230.909 1107.3L230.772 1107.33L222.08 1136.57L214.614 1123.2L229.119 1058.81L204.169 1062.66L197.887 1093.23L182.67 1065.98L157.72 1069.83L190.982 1126.85L187.898 1141.86L170.787 1116.6L170.65 1116.62L147.116 1119.83L182.053 1170.31L204.792 1166.8L204.794 1166.8ZM353.591 1045.48L353.59 1045.48L343.679 1052.31L346.281 1040.56L346.283 1040.56L327.199 1027.71L274.103 1058.52L294.031 1071.44L294.145 1071.52L320.38 1055.94L316.783 1070.83L262.425 1108.27L283.361 1122.38L308.729 1104.19L301.399 1134.53L322.336 1148.64L336.616 1084.19L349.069 1075.26L344.488 1105.43L344.603 1105.51L364.066 1119.12L372.675 1058.34L353.591 1045.48ZM299.944 919.567L299.945 919.568L297.3 931.309L291.239 920.919L291.24 920.918L291.239 920.918L268.5 924.431L250.423 983.098L273.83 979.06L273.966 979.039L282.658 949.793L290.125 963.168L275.621 1027.56L300.57 1023.71L306.851 993.13L322.069 1020.39L347.019 1016.54L313.757 959.517L316.84 944.507L333.952 969.767L334.088 969.746L357.622 966.532L322.685 916.054L299.945 919.567L299.944 919.567ZM317.284 810.452L317.283 810.454L307.372 817.281L309.974 805.536L309.976 805.535L290.892 792.679L237.795 823.487L257.724 836.412L257.838 836.49L284.073 820.913L280.476 835.804L226.117 873.242L247.054 887.348L272.421 869.159L265.092 899.505L286.029 913.611L300.307 849.163L312.762 840.233L308.181 870.4L308.296 870.476L327.759 884.092L336.367 823.308L317.284 810.452ZM263.638 684.543L263.639 684.544L260.994 696.285L254.933 685.896L254.934 685.894L254.933 685.895L232.194 689.407L214.117 748.074L237.523 744.037L237.66 744.016L246.352 714.77L253.819 728.144L239.315 792.536L264.264 788.682L270.545 758.107L285.762 785.366L310.712 781.512L277.45 724.494L280.534 709.485L297.645 734.745L297.782 734.724L321.316 731.509L286.379 681.03L263.639 684.543L263.638 684.543ZM280.978 575.429L280.977 575.431L271.065 582.258L273.668 570.513L273.67 570.511L254.585 557.655L201.489 588.464L221.417 601.388L221.532 601.467L247.766 585.891L244.17 600.78L189.811 638.219L210.748 652.324L236.115 634.135L228.786 664.483L249.723 678.588L264.001 614.14L276.455 605.21L271.874 635.376L271.989 635.453L291.452 649.068L300.061 588.285L280.978 575.429ZM227.332 449.521L227.333 449.522L224.688 461.263L218.627 450.873L218.628 450.872L218.627 450.872L195.887 454.385L177.81 513.051L201.217 509.015L201.354 508.993L210.046 479.747L217.512 493.121L203.009 557.513L227.958 553.659L234.239 523.084L249.456 550.343L274.406 546.488L241.144 489.471L244.227 474.462L261.339 499.722L261.476 499.7L285.009 496.485L250.073 446.008L227.333 449.521L227.332 449.521ZM244.671 340.405L244.671 340.408L234.759 347.234L237.361 335.489L237.363 335.488L218.279 322.632L165.183 353.441L185.111 366.366L185.225 366.444L211.46 350.868L207.864 365.757L153.505 403.196L174.442 417.301L199.809 399.112L192.48 429.46L213.417 443.566L227.696 379.116L240.149 370.188L235.568 400.353L235.683 400.43L255.146 414.045L263.755 353.262L244.671 340.405ZM191.025 214.498L191.027 214.498L188.381 226.24L182.32 215.85L182.321 215.849L182.32 215.849L159.581 219.362L141.504 278.027L164.911 273.991L165.047 273.97L173.74 244.724L181.206 258.099L166.703 322.49L191.651 318.636L197.932 288.061L213.15 315.319L238.1 311.465L204.838 254.448L207.921 239.438L225.033 264.698L225.169 264.677L248.703 261.462L213.766 210.985L191.026 214.497L191.025 214.498ZM208.365 105.382L208.364 105.385L198.452 112.212L201.055 100.466L201.057 100.465L181.972 87.6085L128.876 118.417L148.805 131.342L148.919 131.42L175.154 115.844L171.557 130.735L117.198 168.172L138.135 182.277L163.502 164.088L156.173 194.436L177.11 208.542L191.389 144.093L203.843 135.164L199.262 165.331L199.377 165.406L218.839 179.021L227.448 118.238L208.365 105.382ZM154.719 -20.5258L154.72 -20.5249L152.075 -8.78382L146.014 -19.1736L146.015 -19.1748L146.014 -19.1746L123.275 -15.6619L105.198 43.0039L128.604 38.9677L128.741 38.9465L137.434 9.70048L144.9 23.0753L130.396 87.4668L155.345 83.6127L161.626 53.0373L176.843 80.2959L201.793 76.4416L168.531 19.4246L171.615 4.41492L188.726 29.6747L188.863 29.6536L212.397 26.4386L177.46 -24.0388L154.72 -20.5259L154.719 -20.5258ZM172.059 -129.642L172.058 -129.638L162.146 -122.812L164.749 -134.556L164.751 -134.558L145.666 -147.414L92.5699 -116.606L112.499 -103.681L112.612 -103.603L138.847 -119.179L135.251 -104.289L80.892 -66.8512L101.829 -52.7461L127.196 -70.9349L119.867 -40.5873L140.804 -26.4811L155.083 -90.9293L167.537 -99.8581L162.956 -69.6929L163.07 -69.6161L182.533 -56.0021L191.142 -116.784L172.059 -129.642ZM118.413 -255.549L118.414 -255.548L115.768 -243.807L109.708 -254.197L109.708 -254.198L109.707 -254.198L86.9684 -250.685L68.8913 -192.019L92.2979 -196.056L92.4348 -196.077L101.126 -225.323L108.593 -211.948L94.0898 -147.557L119.039 -151.411L125.32 -181.986L140.537 -154.726L165.487 -158.581L132.225 -215.599L135.308 -230.608L152.42 -205.349L152.557 -205.37L176.09 -208.585L141.154 -259.062L118.414 -255.549L118.413 -255.549ZM207.212 -170.936L207.212 -170.938L217.123 -177.764L214.522 -166.02L214.52 -166.018L214.521 -166.017L233.603 -153.162L233.604 -153.162L286.7 -183.972L266.773 -196.895L266.658 -196.973L240.423 -181.398L244.019 -196.287L298.377 -233.724L277.44 -247.83L252.075 -229.643L259.404 -259.989L238.466 -274.095L224.187 -209.648L211.735 -200.719L216.315 -230.883L216.2 -230.96L196.737 -244.573L188.127 -183.793L188.127 -183.792L207.21 -170.937L207.212 -170.936ZM260.857 -45.0216L260.856 -45.0235L263.501 -56.7657L269.564 -46.374L269.563 -46.3728L269.564 -46.3729L292.303 -49.8857L310.38 -108.553L286.973 -104.515L286.836 -104.494L278.144 -75.247L270.677 -88.6227L285.182 -153.015L260.234 -149.16L253.952 -118.583L238.733 -145.844L213.784 -141.99L247.046 -84.9722L243.963 -69.9625L226.851 -95.2223L226.713 -95.201L203.18 -91.987L238.117 -41.5087L260.855 -45.0213L260.857 -45.0216ZM243.519 64.0929L243.519 64.0907L253.43 57.2651L250.829 69.0089L250.827 69.0103L250.828 69.0111L269.91 81.8665L269.911 81.8664L323.007 51.0566L303.08 38.1332L302.965 38.0554L276.73 53.6307L280.327 38.7413L334.684 1.3038L313.747 -12.8024L288.383 5.38393L295.712 -24.9604L274.774 -39.0665L260.495 25.3795L248.042 34.3093L252.622 4.14534L252.507 4.06859L233.044 -9.54552L224.434 51.2358L224.434 51.2368L243.518 64.092L243.519 64.0929ZM297.164 190.002L297.162 190L299.808 178.258L305.87 188.649L305.869 188.651L305.87 188.65L328.609 185.138L346.686 126.471L323.28 130.508L323.143 130.529L314.45 159.776L306.983 146.401L321.489 82.0089L296.54 85.863L290.258 116.441L275.039 89.1791L250.091 93.0332L283.352 150.051L280.269 165.061L263.157 139.8L263.02 139.821L239.486 143.036L274.424 193.515L297.162 190.002L297.164 190.002ZM279.825 299.116L279.826 299.114L289.736 292.288L287.135 304.032L287.133 304.034L287.134 304.035L306.217 316.89L306.218 316.89L359.314 286.08L339.386 273.157L339.271 273.078L313.037 288.654L316.633 273.765L370.991 236.327L350.054 222.221L324.688 240.407L332.018 210.062L311.08 195.957L296.801 260.403L284.348 269.333L288.928 239.169L288.814 239.092L269.351 225.478L260.74 286.259L260.741 286.26L279.824 299.115L279.825 299.116ZM333.47 425.024L333.469 425.022L336.114 413.28L342.176 423.672L342.175 423.673L342.176 423.673L364.915 420.16L382.992 361.494L359.586 365.531L359.449 365.552L350.756 394.799L343.289 381.423L357.795 317.032L332.846 320.886L326.564 351.463L311.346 324.202L286.397 328.057L319.659 385.075L316.575 400.083L299.464 374.823L299.326 374.845L275.792 378.06L310.73 428.537L333.468 425.024L333.47 425.024ZM316.131 534.14L316.132 534.137L326.043 527.312L323.441 539.056L323.44 539.057L323.441 539.058L342.523 551.913L342.524 551.913L395.62 521.103L375.693 508.179L375.578 508.101L349.344 523.677L352.939 508.788L407.297 471.351L386.36 457.244L360.995 475.431L368.324 445.085L347.386 430.979L333.107 495.427L320.655 504.356L325.235 474.192L325.12 474.115L305.657 460.501L297.047 521.283L297.047 521.284L316.13 534.139L316.131 534.14ZM369.776 660.048L369.775 660.046L372.42 648.304L378.482 658.695L378.482 658.696L378.483 658.696L401.222 655.183L419.299 596.518L395.892 600.554L395.755 600.575L387.063 629.822L379.596 616.447L394.101 552.055L369.153 555.909L362.871 586.486L347.652 559.226L322.703 563.08L355.965 620.098L352.882 635.107L335.77 609.847L335.632 609.868L312.099 613.083L347.036 663.56L369.774 660.048L369.776 660.048ZM352.438 769.163L352.438 769.16L362.35 762.334L359.748 774.079L359.746 774.08L359.747 774.081L378.829 786.937L378.83 786.937L431.926 756.126L411.999 743.202L411.884 743.125L385.65 758.701L389.245 743.81L443.604 706.374L422.667 692.268L397.302 710.454L404.63 680.109L383.692 666.003L369.414 730.45L356.961 739.379L361.541 709.215L361.426 709.139L341.964 695.525L333.354 756.305L333.353 756.305L333.353 756.307L352.438 769.163ZM406.083 895.071L406.081 895.069L408.727 883.327L414.789 893.719L414.788 893.72L414.789 893.72L437.528 890.207L455.605 831.541L432.199 835.577L432.062 835.599L423.369 864.846L415.902 851.47L430.408 787.078L405.459 790.932L399.177 821.51L383.958 794.249L359.01 798.103L392.271 855.121L389.188 870.13L372.077 844.87L371.939 844.892L348.405 848.107L383.343 898.584L406.081 895.071L406.083 895.071ZM388.744 1004.19L388.745 1004.18L398.656 997.358L396.054 1009.1L396.052 1009.1L396.053 1009.1L396.053 1009.1L415.136 1021.96L415.137 1021.96L468.233 991.149L448.305 978.226L448.19 978.148L421.955 993.723L425.552 978.834L479.91 941.397L458.973 927.291L433.607 945.478L440.937 915.132L419.999 901.026L405.721 965.473L393.267 974.402L397.847 944.238L397.732 944.161L378.27 930.548L369.659 991.328L369.66 991.329L388.743 1004.18L388.744 1004.19ZM442.389 1130.09L442.388 1130.09L445.033 1118.35L451.095 1128.74L451.094 1128.74L451.095 1128.74L473.834 1125.23L491.912 1066.56L468.505 1070.6L468.368 1070.62L459.676 1099.87L452.209 1086.49L466.714 1022.1L441.765 1025.96L435.483 1056.53L420.265 1029.27L395.316 1033.13L428.578 1090.14L425.495 1105.15L408.383 1079.89L408.245 1079.92L384.711 1083.13L419.649 1133.61L442.387 1130.09L442.389 1130.09ZM591.186 1008.78L591.185 1008.78L581.275 1015.6L583.877 1003.86L583.878 1003.86L564.794 991.004L511.698 1021.81L531.626 1034.74L531.74 1034.81L557.975 1019.24L554.379 1034.13L500.021 1071.57L520.957 1085.67L546.324 1067.48L538.995 1097.83L559.932 1111.94L574.212 1047.49L586.664 1038.56L582.083 1068.72L582.198 1068.8L601.661 1082.42L610.271 1021.63L591.186 1008.78ZM537.54 882.863L537.541 882.864L534.896 894.606L528.834 884.215L528.835 884.214L528.834 884.214L506.095 887.727L488.018 946.394L511.426 942.357L511.562 942.335L520.254 913.089L527.72 926.464L513.216 990.856L538.166 987.002L544.447 956.426L559.665 983.686L584.614 979.832L551.352 922.815L554.436 907.804L571.548 933.064L571.684 933.042L595.218 929.828L560.28 879.35L537.541 882.863L537.54 882.863ZM554.879 773.748L554.878 773.751L544.968 780.576L547.57 768.831L547.571 768.831L528.487 755.975L475.39 786.784L495.319 799.708L495.433 799.786L521.668 784.21L518.072 799.1L463.713 836.539L484.65 850.644L510.017 832.455L502.688 862.802L523.625 876.908L537.903 812.46L550.357 803.531L545.776 833.696L545.891 833.773L565.353 847.388L573.964 786.605L554.879 773.748ZM501.234 647.84L501.235 647.84L498.59 659.583L492.528 649.192L492.529 649.191L492.528 649.191L469.789 652.704L451.712 711.371L475.119 707.333L475.256 707.312L483.948 678.066L491.414 691.441L476.91 755.832L501.86 751.978L508.141 721.403L523.359 748.662L548.307 744.808L515.046 687.791L518.13 672.78L535.241 698.041L535.378 698.02L558.912 694.805L523.974 644.327L501.235 647.84L501.234 647.84ZM518.573 538.725L518.572 538.727L508.661 545.553L511.264 533.808L511.265 533.808L492.18 520.952L439.084 551.76L459.012 564.685L459.127 564.764L485.361 549.187L481.766 564.077L427.407 601.515L448.344 615.62L473.71 597.432L466.382 627.779L487.319 641.884L501.597 577.436L514.05 568.508L509.469 598.673L509.584 598.749L529.047 612.365L537.657 551.581L518.573 538.725ZM464.928 412.817L464.929 412.818L462.284 424.56L456.222 414.17L456.223 414.168L456.222 414.169L433.482 417.681L415.405 476.347L438.813 472.311L438.95 472.29L447.641 443.044L455.107 456.418L440.604 520.809L465.554 516.955L471.835 486.38L487.052 513.639L512.001 509.785L478.739 452.768L481.823 437.757L498.935 463.018L499.072 462.997L522.605 459.782L487.668 409.304L464.929 412.817L464.928 412.817ZM482.266 303.702L482.266 303.704L472.355 310.53L474.957 298.784L474.958 298.784L455.874 285.928L402.778 316.737L422.706 329.662L422.82 329.74L449.055 314.164L445.46 329.053L391.101 366.492L412.038 380.597L437.404 362.408L430.076 392.756L451.013 406.862L465.292 342.413L477.744 333.484L473.163 363.649L473.278 363.726L492.741 377.341L501.351 316.558L482.266 303.702ZM428.621 177.794L428.623 177.795L425.977 189.537L419.915 179.146L419.916 179.145L419.915 179.145L397.176 182.658L379.099 241.324L402.507 237.287L402.644 237.266L411.335 208.02L418.802 221.395L404.298 285.787L429.247 281.932L435.528 251.357L450.746 278.616L475.695 274.761L442.433 217.744L445.517 202.734L462.629 227.994L462.766 227.973L486.299 224.758L451.361 174.281L428.622 177.794L428.621 177.794ZM445.96 68.6783L445.959 68.6815L436.049 75.5072L438.651 63.7611L438.652 63.7609L419.567 50.9048L366.471 81.7136L386.4 94.6389L386.514 94.7168L412.749 79.1405L409.152 94.0309L354.794 131.468L375.731 145.574L401.097 127.385L393.769 157.732L414.706 171.839L428.985 107.389L441.438 98.4607L436.857 128.627L436.972 128.703L456.434 142.318L465.044 81.5344L445.96 68.6783ZM392.315 -57.2296L392.316 -57.2287L389.671 -45.4866L383.609 -55.8772L383.61 -55.8784L383.609 -55.8782L360.87 -52.3655L342.793 6.30033L366.2 2.26389L366.337 2.24275L375.029 -27.0031L382.496 -13.6285L367.991 50.7632L392.941 46.9089L399.222 16.3335L414.439 43.5921L439.388 39.738L406.126 -17.279L409.21 -32.2899L426.322 -7.02905L426.459 -7.05019L449.993 -10.2652L415.055 -60.7424L392.316 -57.2297L392.315 -57.2296ZM409.654 -166.345L409.653 -166.342L399.742 -159.516L402.345 -171.261L402.346 -171.261L383.261 -184.118L330.165 -153.31L350.093 -140.385L350.207 -140.307L376.442 -155.883L372.847 -140.993L318.488 -103.555L339.425 -89.4498L364.791 -107.637L357.463 -77.291L378.4 -63.1849L392.679 -127.633L405.13 -136.562L400.551 -106.397L400.665 -106.32L420.128 -92.7057L428.738 -153.488L409.654 -166.345Z" fill="#2261FE" fill-opacity="0.101961"/>
</g>
</svg>
