<svg width="50" height="52" viewBox="0 0 50 52" fill="none" xmlns="http://www.w3.org/2000/svg">
<ellipse cx="25" cy="26" rx="26" ry="25" transform="rotate(90 25 26)" fill="#CCE0FF"/>
<path d="M22 26H17.6C17.0399 26 16.7599 26 16.546 26.109C16.3578 26.2049 16.2049 26.3578 16.109 26.546C16 26.7599 16 27.0399 16 27.6L16 33.4C16 33.9601 16 34.2401 16.109 34.454C16.2049 34.6422 16.3578 34.7951 16.546 34.891C16.7599 35 17.0399 35 17.6 35H22M22 35H28M22 35L22 22.6C22 22.0399 22 21.7599 22.109 21.546C22.2049 21.3578 22.3578 21.2049 22.546 21.109C22.7599 21 23.0399 21 23.6 21H26.4C26.9601 21 27.2401 21 27.454 21.109C27.6422 21.2049 27.7951 21.3578 27.891 21.546C28 21.7599 28 22.0399 28 22.6V35M28 35H32.4C32.9601 35 33.2401 35 33.454 34.891C33.6422 34.7951 33.7951 34.6422 33.891 34.454C34 34.2401 34 33.9601 34 33.4V18.6C34 18.0399 34 17.7599 33.891 17.546C33.7951 17.3578 33.6422 17.2049 33.454 17.109C33.2401 17 32.9601 17 32.4 17H29.6C29.0399 17 28.7599 17 28.546 17.109C28.3578 17.2049 28.2049 17.3578 28.109 17.546C28 17.7599 28 18.0399 28 18.6V22" stroke="#2261FE" stroke-width="2" stroke-linecap="round" stroke-linejoin="round"/>
</svg>
