<svg width="45" height="45" viewBox="0 0 45 45" fill="none" xmlns="http://www.w3.org/2000/svg">
<rect x="45" y="45" width="45" height="45" rx="22.5" transform="rotate(-180 45 45)" fill="white" fill-opacity="0.2"/>
<path d="M22.5 5.78171e-06C10.0736 4.69536e-06 -7.61334e-07 10.0736 -1.84768e-06 22.5C-2.93404e-06 34.9264 10.0736 45 22.5 45C34.9264 45 45 34.9264 45 22.5C45 10.0736 34.9264 6.86806e-06 22.5 5.78171e-06Z" fill="#3E73C4"/>
<path d="M16.8441 19.5131C16.8441 22.5 18.6441 23.5237 22.2441 23.9512C24.8147 24.293 25.328 24.975 25.328 26.1703C25.328 27.3656 24.4702 28.1334 22.7573 28.1334C21.2147 28.1334 20.3569 27.6216 19.9294 26.3405C19.8845 26.2168 19.803 26.1098 19.6957 26.0336C19.5884 25.9575 19.4604 25.9159 19.3289 25.9144L17.9578 25.9144C17.8786 25.9122 17.7998 25.9262 17.7262 25.9555C17.6526 25.9847 17.5857 26.0286 17.5295 26.0845C17.4734 26.1404 17.4292 26.2071 17.3996 26.2806C17.37 26.3541 17.3556 26.4328 17.3573 26.512L17.3573 26.5964C17.5249 27.5233 17.9939 28.3688 18.6914 29.0018C19.3889 29.6347 20.276 30.0196 21.2147 30.0966L21.2147 32.144C21.2147 32.4858 21.472 32.7417 21.8995 32.8275L23.1862 32.8275C23.528 32.8275 23.7853 32.5716 23.8711 32.1441L23.8711 30.1809C26.4431 29.8406 28.0702 28.1334 28.0702 25.9987C28.0702 23.1834 26.3573 22.0739 22.7573 21.6464C20.3569 21.2203 19.5862 20.707 19.5862 19.3416C19.5862 17.9775 20.7858 17.0381 22.4142 17.0381C24.6431 17.0381 25.4137 17.9761 25.6711 19.2572C25.7555 19.5975 26.0142 19.7691 26.2716 19.7691L27.7284 19.7691C27.8075 19.771 27.8862 19.7568 27.9596 19.7275C28.0331 19.6982 28.0998 19.6542 28.1558 19.5984C28.2118 19.5425 28.2559 19.4759 28.2854 19.4025C28.3149 19.3291 28.3292 19.2505 28.3275 19.1714L28.3275 19.087C27.9858 16.9523 26.6133 15.4167 23.7853 14.9892L23.7853 12.9403C23.7853 12.6 23.528 12.3426 23.1005 12.2583L21.8137 12.2583C21.472 12.2583 21.2147 12.5142 21.1289 12.9403L21.1289 14.9906C18.5569 15.4167 16.8441 17.2097 16.8441 19.5145L16.8441 19.5131Z" fill="white"/>
<path d="M26.8706 10.5511C33.5559 12.9417 36.9844 20.3667 34.4981 26.9381C33.2128 30.5241 30.3848 33.2536 26.8706 34.5347C26.5275 34.7048 26.3573 34.9608 26.3573 35.3883L26.3573 36.5836C26.3573 36.9239 26.5275 37.1798 26.8706 37.2656C26.9564 37.2656 27.128 37.2656 27.2137 37.1813C29.1425 36.5789 30.9331 35.601 32.4824 34.3038C34.0316 33.0066 35.309 31.4158 36.241 29.6229C37.1729 27.83 37.741 25.8705 37.9125 23.8571C38.084 21.8438 37.8556 19.8164 37.2403 17.8917C35.6991 13.1105 32.0133 9.44016 27.2137 7.90454C26.8706 7.73438 26.5275 7.90454 26.4431 8.24625C26.3573 8.33063 26.3573 8.41782 26.3573 8.58797L26.3573 9.78329C26.3573 10.0392 26.6133 10.3795 26.8706 10.5511ZM17.7862 37.1798C18.1294 37.3514 18.4725 37.1798 18.5569 36.8395C18.6426 36.7538 18.6426 36.668 18.6426 36.4978L18.6426 35.3025C18.6426 34.9608 18.3867 34.6205 18.1294 34.4489C11.4441 32.0583 8.01562 24.6333 10.5019 18.0619C11.7872 14.4759 14.6151 11.7464 18.1294 10.4653C18.4725 10.2952 18.6426 10.0392 18.6426 9.61172L18.6426 8.41641C18.6426 8.0761 18.4725 7.82016 18.1294 7.73438C18.0436 7.73438 17.872 7.73438 17.7862 7.81875C15.8575 8.42109 14.0669 9.399 12.5176 10.6962C10.9683 11.9934 9.69096 13.5842 8.75902 15.3771C7.82709 17.17 7.25901 19.1295 7.0875 21.1429C6.91599 23.1562 7.14444 25.1836 7.75968 27.1083C9.30093 31.9739 13.0725 35.6442 17.7862 37.1798Z" fill="white"/>
</svg>
