<svg width="45" height="45" viewBox="0 0 45 45" fill="none" xmlns="http://www.w3.org/2000/svg">
<rect width="45" height="45" rx="22.5" fill="white" fill-opacity="0.2"/>
<path d="M22.5 45C34.9264 45 45 34.9264 45 22.5C45 10.0736 34.9264 0 22.5 0C10.0736 0 0 10.0736 0 22.5C0 34.9264 10.0736 45 22.5 45Z" fill="#26A17B"/>
<path fill-rule="evenodd" clip-rule="evenodd" d="M25.2028 24.4448V24.442C25.0481 24.4533 24.2508 24.5011 22.4719 24.5011C21.0516 24.5011 20.0517 24.4589 19.7002 24.442V24.4462C14.2327 24.2058 10.1517 23.2537 10.1517 22.1147C10.1517 20.9756 14.2327 20.025 19.7002 19.7803V23.4984C20.0573 23.5237 21.0811 23.5842 22.4958 23.5842C24.1931 23.5842 25.0439 23.5139 25.2028 23.4998V19.7831C30.6591 20.0264 34.7302 20.9784 34.7302 22.1147C34.7302 23.2537 30.6591 24.203 25.2028 24.4448ZM25.2028 19.3964V16.0692H32.8162V10.9955H12.0867V16.0692H19.7002V19.395C13.5127 19.6791 8.85938 20.9053 8.85938 22.3734C8.85938 23.8416 13.5127 25.0664 19.7002 25.3519V36.0141H25.2028V25.3491C31.3805 25.065 36.0225 23.8402 36.0225 22.3734C36.0225 20.9067 31.3805 19.6819 25.2028 19.3964Z" fill="white"/>
</svg>
