<svg width="390" height="166" viewBox="0 0 390 166" fill="none" xmlns="http://www.w3.org/2000/svg">
<g clip-path="url(#clip0_1458_3359)">
<mask id="mask0_1458_3359" style="mask-type:luminance" maskUnits="userSpaceOnUse" x="-249" y="-358" width="822" height="1156">
<path d="M409.457 -358L572.206 695.531L-86.2509 797.249L-249 -256.282L409.457 -358Z" fill="white"/>
</mask>
<g mask="url(#mask0_1458_3359)">
<path fill-rule="evenodd" clip-rule="evenodd" d="M356.009 -528.253L356.01 -528.252L353.365 -516.51L347.303 -526.901L347.303 -526.902L347.302 -526.902L324.563 -523.389L306.486 -464.723L329.894 -468.76L330.031 -468.781L338.722 -498.027L346.188 -484.652L331.685 -420.26L356.635 -424.114L362.916 -454.69L378.133 -427.43L403.082 -431.284L369.82 -488.301L372.904 -503.312L390.016 -478.052L390.153 -478.074L413.686 -481.289L378.749 -531.766L356.01 -528.253L356.009 -528.253ZM-267.98 -333.528L-267.979 -333.53L-258.068 -340.356L-260.67 -328.612L-260.671 -328.611L-260.67 -328.61L-241.588 -315.755L-241.587 -315.755L-188.491 -346.565L-208.418 -359.488L-208.533 -359.566L-234.768 -343.991L-231.172 -358.88L-176.813 -396.317L-197.751 -410.423L-223.116 -392.236L-215.787 -422.582L-236.725 -436.688L-251.004 -372.241L-263.456 -363.312L-258.876 -393.476L-258.991 -393.553L-278.454 -407.166L-287.064 -346.385L-287.064 -346.384L-267.981 -333.529L-267.98 -333.528ZM-214.333 -207.614L-214.335 -207.617L-211.69 -219.358L-205.628 -208.967L-205.628 -208.965L-205.627 -208.966L-182.888 -212.478L-164.811 -271.145L-188.218 -267.108L-188.355 -267.087L-197.047 -237.84L-204.514 -251.215L-190.009 -315.607L-214.958 -311.753L-221.239 -281.175L-236.458 -308.437L-261.407 -304.583L-228.145 -247.565L-231.228 -232.555L-248.34 -257.815L-248.477 -257.794L-272.011 -254.58L-237.074 -204.101L-214.336 -207.614L-214.333 -207.614ZM-231.672 -98.4997L-231.672 -98.5019L-221.761 -105.328L-224.362 -93.5837L-224.364 -93.5823L-224.363 -93.5815L-205.281 -80.7261L-205.28 -80.7262L-152.184 -111.536L-172.111 -124.459L-172.226 -124.537L-198.461 -108.962L-194.865 -123.851L-140.506 -161.289L-161.444 -175.395L-186.808 -157.209L-179.48 -187.553L-200.418 -201.659L-214.696 -137.213L-227.149 -128.283L-222.569 -158.447L-222.684 -158.524L-242.147 -172.138L-250.757 -111.357L-250.757 -111.356L-231.674 -98.5006L-231.672 -98.4997ZM-178.026 27.409L-178.029 27.4063L-175.383 15.6652L-169.321 26.0569L-169.322 26.0581L-169.321 26.0579L-146.582 22.5452L-128.505 -36.1217L-151.911 -32.0844L-152.048 -32.0633L-160.741 -2.8162L-168.208 -16.1919L-153.702 -80.5837L-178.651 -76.7296L-184.933 -46.152L-200.152 -73.4135L-225.101 -69.5594L-191.839 -12.5414L-194.922 2.46731L-212.034 -22.7925L-212.17 -22.7714L-235.705 -19.5562L-200.767 30.9221L-178.029 27.4095L-178.026 27.409ZM-195.366 136.524L-195.365 136.521L-185.455 129.696L-188.056 141.44L-188.058 141.441L-188.057 141.442L-168.975 154.297L-168.973 154.297L-115.878 123.487L-135.805 110.564L-135.92 110.485L-162.154 126.061L-158.558 111.172L-104.199 73.7345L-125.137 59.6284L-150.503 77.8149L-143.173 47.4693L-164.111 33.3643L-178.39 97.8103L-190.843 106.74L-186.263 76.5761L-186.378 76.4994L-205.84 62.8853L-214.451 123.667L-214.45 123.668L-195.367 136.523L-195.366 136.524ZM-141.72 262.431L-141.723 262.429L-139.077 250.688L-133.015 261.079L-133.016 261.08L-133.015 261.08L-110.276 257.567L-92.1987 198.902L-115.605 202.938L-115.742 202.959L-124.435 232.206L-131.902 218.831L-117.396 154.44L-142.345 158.294L-148.627 188.87L-163.845 161.61L-188.794 165.464L-155.532 222.482L-158.616 237.491L-175.727 212.231L-175.864 212.252L-199.399 215.467L-164.461 265.944L-141.723 262.432L-141.72 262.431ZM-159.06 371.547L-159.059 371.545L-149.148 364.719L-151.75 376.463L-151.752 376.464L-151.75 376.465L-132.668 389.321L-132.667 389.321L-79.5712 358.511L-99.4985 345.586L-99.6135 345.509L-125.847 361.085L-122.252 346.195L-67.8929 308.758L-88.8309 294.652L-114.196 312.838L-106.867 282.493L-127.805 268.387L-142.084 332.835L-154.537 341.764L-149.956 311.6L-150.071 311.523L-169.534 297.909L-178.144 358.69L-178.144 358.691L-159.061 371.546L-159.06 371.547ZM-105.414 497.455L-105.416 497.452L-102.771 485.711L-96.7086 496.103L-96.7096 496.104L-96.7085 496.104L-73.9694 492.591L-55.8923 433.925L-79.2989 437.961L-79.4358 437.983L-88.1283 467.23L-95.5953 453.854L-81.0899 389.462L-106.039 393.316L-112.32 423.894L-127.539 396.633L-152.488 400.487L-119.226 457.505L-122.309 472.514L-139.421 447.254L-139.558 447.275L-163.092 450.491L-128.155 500.968L-105.417 497.455L-105.414 497.455ZM-122.753 606.57L-122.753 606.567L-112.841 599.742L-115.443 611.487L-115.445 611.488L-115.444 611.489L-96.3618 624.344L-96.3608 624.344L-43.265 593.533L-63.1921 580.61L-63.3072 580.532L-89.541 596.108L-85.9457 581.218L-31.5865 543.781L-52.5245 529.675L-77.8891 547.862L-70.5607 517.516L-91.4987 503.41L-105.777 567.857L-118.23 576.786L-113.65 546.622L-113.765 546.546L-133.228 532.932L-141.837 593.712L-141.838 593.712L-141.838 593.714L-122.753 606.57ZM-69.1073 732.478L-69.1099 732.475L-66.4646 720.734L-60.4023 731.126L-60.4032 731.127L-60.4021 731.127L-37.6631 727.614L-19.5859 668.948L-42.9926 672.985L-43.1294 673.006L-51.8219 702.253L-59.2889 688.877L-44.7835 624.485L-69.7323 628.34L-76.014 658.917L-91.2328 631.657L-116.182 635.511L-82.9196 692.529L-86.003 707.537L-103.115 682.278L-103.251 682.299L-126.786 685.514L-91.8484 735.991L-69.1104 732.479L-69.1073 732.478ZM-86.4469 841.594L-86.4464 841.591L-76.5347 834.765L-79.1371 846.509L-79.139 846.51L-79.1378 846.511L-79.1377 846.512L-60.0556 859.367L-60.0546 859.366L-6.95861 828.556L-26.8858 815.633L-27.0008 815.555L-53.2358 831.131L-49.6393 816.241L4.71981 778.805L-16.2182 764.699L-41.5837 782.885L-34.2543 752.539L-55.1923 738.433L-69.4706 802.881L-81.924 811.809L-77.3438 781.645L-77.4587 781.569L-96.9212 767.955L-105.532 828.736L-105.532 828.737L-86.4483 841.592L-86.4469 841.594ZM-32.8009 967.502L-32.8035 967.499L-30.1582 955.758L-24.0959 966.149L-24.0968 966.151L-24.0957 966.15L-1.35668 962.638L16.7204 903.972L-6.68622 908.008L-6.82308 908.029L-15.5156 937.276L-22.9826 923.901L-8.47715 859.509L-33.4259 863.363L-39.7077 893.941L-54.9265 866.679L-79.8754 870.533L-46.6134 927.551L-49.6966 942.561L-66.8082 917.301L-66.9451 917.322L-90.4797 920.537L-55.542 971.015L-32.8041 967.502L-32.8009 967.502ZM115.995 846.184L115.994 846.187L106.084 853.012L108.686 841.267L108.687 841.267L89.6025 828.411L36.5064 859.22L56.4348 872.144L56.5488 872.222L82.7836 856.646L79.1884 871.536L24.8296 908.975L45.7661 923.079L71.1326 904.891L63.8043 935.238L84.7414 949.344L99.0205 884.895L111.473 875.967L106.892 906.132L107.007 906.209L126.469 919.823L135.08 859.041L115.995 846.184ZM62.3492 720.27L62.3504 720.271L59.7053 732.013L53.6443 721.624L53.645 721.621L53.643 721.622L30.9039 725.134L12.8269 783.801L36.2344 779.764L36.3713 779.743L45.0631 750.498L52.5288 763.872L38.0253 828.263L62.9751 824.409L69.2562 793.834L84.4738 821.093L109.423 817.239L76.1607 760.222L79.2448 745.211L96.3564 770.471L96.4933 770.45L120.027 767.236L85.0893 716.758L62.3502 720.27L62.3492 720.27ZM79.6879 611.156L79.6872 611.158L69.7766 617.984L72.3788 606.239L72.3798 606.239L53.2954 593.382L0.19925 624.191L20.1277 637.115L20.2416 637.193L46.4764 621.617L42.8812 636.507L-11.4776 673.946L9.45916 688.051L34.8254 669.862L27.4972 700.209L48.4342 714.315L62.7123 649.867L75.1656 640.938L70.5847 671.103L70.6995 671.18L90.1623 684.795L98.7724 624.012L79.6879 611.156ZM26.0428 485.247L26.0441 485.248L23.3989 496.99L17.338 486.6L17.3387 486.598L17.3366 486.598L-5.40244 490.111L-23.4795 548.778L-0.0719335 544.741L0.0649922 544.719L8.75672 515.474L16.2224 528.848L1.71898 593.24L26.6688 589.386L32.9498 558.81L48.1674 586.07L73.1162 582.216L39.8544 525.199L42.9384 510.188L60.0502 535.449L60.1871 535.427L83.7206 532.212L48.7829 481.734L26.0439 485.247L26.0428 485.247ZM43.3816 376.132L43.3809 376.135L33.4702 382.96L36.0725 371.215L36.0735 371.215L16.989 358.359L-36.1071 389.168L-16.1787 402.092L-16.0646 402.171L10.1702 386.595L6.57487 401.484L-47.784 438.923L-26.8472 453.028L-1.48092 434.839L-8.80902 465.187L12.1279 479.292L26.4059 414.844L38.8593 405.915L34.2783 436.08L34.3932 436.157L53.856 449.772L62.466 388.989L43.3816 376.132ZM-10.2634 250.225L-10.2621 250.226L-12.9073 261.968L-18.9682 251.578L-18.9675 251.576L-18.9696 251.576L-41.7086 255.089L-59.7858 313.755L-36.3781 309.718L-36.2412 309.697L-27.5496 280.451L-20.0838 293.826L-34.5874 358.216L-9.63759 354.362L-3.35636 323.788L11.8611 351.046L36.8098 347.192L3.54802 290.175L6.63208 275.164L23.7439 300.425L23.8807 300.404L47.4143 297.189L12.4767 246.712L-10.2623 250.224L-10.2634 250.225ZM7.07523 141.109L7.07452 141.111L-2.83618 147.937L-0.233909 136.192L-0.232913 136.192L-19.3173 123.336L-72.4135 154.144L-52.4849 167.07L-52.3709 167.148L-26.1361 151.571L-29.7315 166.461L-84.0903 203.899L-63.1536 218.004L-37.7873 199.816L-45.1154 230.163L-24.1784 244.269L-9.89937 179.82L2.55292 170.891L-2.02807 201.057L-1.9132 201.133L17.5496 214.749L26.1596 153.965L7.07523 141.109ZM-46.5697 15.2012L-46.5685 15.2021L-49.2137 26.9442L-55.2746 16.5545L-55.2739 16.5522L-55.2759 16.5526L-78.015 20.0653L-96.0922 78.7311L-72.6845 74.6947L-72.5476 74.6736L-63.856 45.4276L-56.3891 58.8023L-70.8936 123.194L-45.9438 119.34L-39.6627 88.7644L-24.4453 116.023L0.503468 112.169L-32.7583 55.1518L-29.6743 40.1409L-12.5625 65.4017L-12.4256 65.3806L11.1079 62.1656L-23.8296 11.6884L-46.5687 15.2011L-46.5697 15.2012ZM-29.2311 -93.9143L-29.2317 -93.9111L-39.1424 -87.0854L-36.5403 -98.8315L-36.5393 -98.8317L-55.6237 -111.688L-108.72 -80.879L-88.7912 -67.9537L-88.6773 -67.8758L-62.4425 -83.4521L-66.0388 -68.5617L-120.397 -31.1242L-99.4599 -17.019L-74.0936 -35.2077L-81.4217 -4.86021L-60.4847 9.24596L-46.2057 -55.2033L-33.7534 -64.1319L-38.3343 -33.9657L-38.2196 -33.89L-18.7567 -20.2749L-10.1467 -81.0582L-29.2311 -93.9143ZM-82.8761 -219.822L-82.8749 -219.821L-85.52 -208.079L-91.5809 -218.469L-91.5802 -218.471L-91.5823 -218.471L-114.321 -214.958L-132.399 -156.292L-108.991 -160.329L-108.854 -160.35L-100.162 -189.596L-92.6955 -176.221L-107.2 -111.829L-82.2502 -115.684L-75.9691 -146.259L-60.7516 -119.001L-35.8029 -122.855L-69.0647 -179.872L-65.9806 -194.882L-48.8689 -169.622L-48.732 -169.643L-25.1984 -172.858L-60.136 -223.335L-82.875 -219.822L-82.8761 -219.822ZM-65.5375 -328.938L-65.538 -328.934L-75.4487 -322.109L-72.8465 -333.854L-72.8455 -333.854L-91.9299 -346.71L-145.026 -315.902L-125.098 -302.977L-124.984 -302.899L-98.7488 -318.475L-102.344 -303.585L-156.703 -266.148L-135.766 -252.042L-110.4 -270.23L-117.728 -239.884L-96.7911 -225.777L-82.5119 -290.226L-70.0606 -299.154L-74.6406 -268.989L-74.5258 -268.912L-55.0631 -255.298L-46.4529 -316.081L-65.5375 -328.938ZM-119.182 -454.846L-119.181 -454.845L-121.826 -443.103L-127.887 -453.492L-127.887 -453.495L-127.889 -453.494L-150.628 -449.982L-168.705 -391.316L-145.297 -395.352L-145.16 -395.373L-136.469 -424.618L-129.003 -411.244L-143.506 -346.853L-118.557 -350.707L-112.275 -381.282L-97.0578 -354.023L-72.1091 -357.877L-105.371 -414.894L-102.287 -429.905L-85.1752 -404.645L-85.0383 -404.666L-61.5048 -407.881L-96.4423 -458.358L-119.181 -454.846L-119.182 -454.846ZM-30.3835 -370.232L-30.3828 -370.234L-20.4712 -377.061L-23.0735 -365.316L-23.0754 -365.315L-23.0742 -365.314L-3.99301 -352.458L-3.99201 -352.458L49.105 -383.268L29.1778 -396.192L29.0628 -396.27L2.82696 -380.693L6.42327 -395.584L60.7824 -433.02L39.8455 -447.126L14.479 -428.939L21.8083 -459.285L0.87131 -473.391L-13.408 -408.944L-25.8603 -400.016L-21.2802 -430.18L-21.3961 -430.256L-40.8576 -443.869L-49.4681 -383.089L-49.468 -383.088L-30.3857 -370.233L-30.3847 -370.233L-30.3835 -370.232ZM23.2625 -244.318L23.2611 -244.32L25.9054 -256.061L31.9675 -245.67L31.9666 -245.669L31.9676 -245.669L54.7077 -249.182L72.7837 -307.849L49.3772 -303.811L49.2403 -303.79L40.5486 -274.545L33.0818 -287.919L47.5873 -352.311L22.6375 -348.457L16.3554 -317.881L1.13786 -345.141L-23.812 -341.286L9.44996 -284.268L6.3668 -269.259L-10.7448 -294.519L-10.8817 -294.497L-34.4154 -291.283L0.521305 -240.805L23.2604 -244.318L23.2625 -244.318ZM5.92367 -135.203L5.92438 -135.206L15.8359 -142.033L13.2337 -130.287L13.2317 -130.286L13.233 -130.285L32.3142 -117.43L32.3151 -117.43L85.4122 -148.24L65.485 -161.163L65.37 -161.241L39.1341 -145.665L42.7304 -160.555L97.0894 -197.993L76.1525 -212.099L50.7871 -193.911L58.1155 -224.257L37.1785 -238.363L22.9001 -173.917L10.4468 -164.987L15.0269 -195.151L14.911 -195.228L-4.55063 -208.842L-13.161 -148.061L-13.1608 -148.06L5.92143 -135.204L5.92246 -135.204L5.92367 -135.203ZM59.5688 -9.2946L59.5674 -9.29652L62.2117 -21.0374L68.2738 -10.6468L68.2729 -10.6456L68.274 -10.6457L91.0141 -14.1586L109.09 -72.8253L85.6836 -68.7881L85.5467 -68.7669L76.8549 -39.5221L69.3882 -52.8957L83.8937 -117.287L58.9439 -113.433L52.6617 -82.8577L37.4442 -110.117L12.4944 -106.263L45.7563 -49.245L42.673 -34.2363L25.5614 -59.4962L25.4245 -59.475L1.89098 -56.26L36.8277 -5.78156L59.5667 -9.29428L59.5688 -9.2946ZM42.23 99.82L42.2307 99.8177L52.1423 92.9909L49.54 104.736L49.5381 104.737L49.5393 104.738L68.6205 117.594L68.6215 117.594L121.719 86.7836L101.791 73.8602L101.676 73.7814L75.4403 89.3578L79.0368 74.4685L133.396 37.0309L112.459 22.9247L87.0924 41.1123L94.4217 10.7657L73.4848 -3.33945L59.2064 61.1065L46.7532 70.0363L51.3333 39.8724L51.2174 39.7958L31.7557 26.1815L23.1454 86.9628L23.1455 86.9639L42.2278 99.8193L42.2288 99.8191L42.23 99.82ZM95.875 225.728L95.8736 225.726L98.5179 213.985L104.58 224.376L104.579 224.377L104.58 224.377L127.32 220.864L145.396 162.198L121.99 166.234L121.853 166.255L113.161 195.501L105.694 182.127L120.2 117.736L95.2502 121.59L88.9681 152.166L73.7506 124.906L48.8007 128.76L82.0627 185.778L78.9794 200.787L61.8677 175.527L61.7308 175.548L38.1973 178.763L73.1339 229.241L95.8729 225.728L95.875 225.728ZM78.5364 334.843L78.5371 334.841L88.4486 328.014L85.8464 339.759L85.8445 339.761L85.8457 339.762L104.927 352.617L104.928 352.617L158.025 321.807L138.098 308.883L137.983 308.805L111.747 324.381L115.343 309.492L169.702 272.054L148.765 257.948L123.399 276.136L130.728 245.789L109.791 231.683L95.5119 296.131L83.0595 305.06L87.6396 274.896L87.5238 274.819L68.0621 261.205L59.4517 321.986L59.4519 321.987L78.5342 334.843L78.5352 334.843L78.5364 334.843ZM132.181 460.751L132.18 460.749L134.824 449.008L140.886 459.399L140.885 459.4L140.887 459.4L163.627 455.887L181.703 397.221L158.296 401.258L158.159 401.279L149.468 430.525L142.001 417.15L156.506 352.758L131.556 356.613L125.274 387.189L110.057 359.929L85.1071 363.784L118.369 420.802L115.286 435.811L98.1741 410.551L98.0372 410.572L74.5037 413.787L109.44 464.264L132.179 460.751L132.181 460.751ZM114.843 569.867L114.843 569.864L124.755 563.037L122.153 574.783L122.151 574.784L122.152 574.785L141.233 587.641L141.234 587.64L194.331 556.829L174.404 543.906L174.289 543.828L148.053 559.405L151.649 544.514L206.008 507.078L185.072 492.971L159.705 511.159L167.034 480.813L146.097 466.706L131.819 531.153L119.366 540.082L123.946 509.918L123.83 509.843L104.368 496.228L95.759 557.008L95.7579 557.009L95.7583 557.011L114.843 569.867ZM168.488 695.775L168.486 695.773L171.131 684.032L177.193 694.422L177.192 694.424L177.193 694.423L199.933 690.91L218.009 632.245L194.602 636.281L194.466 636.302L185.774 665.548L178.307 652.174L192.813 587.782L167.863 591.636L161.581 622.213L146.363 594.953L121.413 598.807L154.675 655.825L151.592 670.834L134.48 645.574L134.344 645.595L110.81 648.81L145.747 699.288L168.486 695.775L168.488 695.775ZM151.149 804.89L151.15 804.887L161.061 798.06L158.459 809.805L158.457 809.807L158.458 809.807L158.458 809.808L177.539 822.663L177.54 822.663L230.637 791.853L210.71 778.929L210.595 778.852L184.359 794.428L187.956 779.538L242.315 742.101L221.378 727.995L196.011 746.183L203.341 715.836L182.404 701.73L168.125 766.177L155.672 775.106L160.252 744.942L160.136 744.865L140.675 731.252L132.064 792.032L132.064 792.033L151.147 804.888L151.149 804.89ZM204.794 930.798L204.793 930.796L207.437 919.055L213.499 929.446L213.498 929.447L213.499 929.447L236.239 925.934L254.315 867.268L230.909 871.305L230.772 871.326L222.08 900.571L214.613 887.197L229.119 822.805L204.169 826.659L197.887 857.235L182.67 829.975L157.72 833.83L190.982 890.848L187.898 905.857L170.787 880.597L170.65 880.619L147.116 883.834L182.053 934.311L204.792 930.798L204.794 930.798ZM353.591 809.481L353.59 809.483L343.679 816.31L346.281 804.565L346.283 804.563L327.199 791.707L274.102 822.516L294.031 835.44L294.145 835.518L320.38 819.942L316.783 834.832L262.425 872.271L283.361 886.375L308.729 868.186L301.399 898.534L322.336 912.64L336.616 848.192L349.069 839.263L344.488 869.428L344.603 869.505L364.065 883.119L372.675 822.337L353.591 809.481ZM299.944 683.567L299.945 683.568L297.3 695.309L291.239 684.919L291.24 684.918L291.239 684.918L268.5 688.431L250.423 747.098L273.829 743.06L273.966 743.039L282.658 713.793L290.125 727.168L275.621 791.559L300.57 787.705L306.851 757.13L322.069 784.39L347.019 780.535L313.757 723.517L316.84 708.507L333.951 733.767L334.088 733.746L357.622 730.532L322.685 680.054L299.945 683.567L299.944 683.567ZM317.284 574.452L317.283 574.454L307.372 581.281L309.974 569.536L309.976 569.535L290.891 556.679L237.795 587.487L257.724 600.412L257.838 600.49L284.073 584.913L280.476 599.804L226.117 637.242L247.054 651.348L272.42 633.159L265.092 663.505L286.029 677.611L300.307 613.163L312.762 604.233L308.181 634.4L308.296 634.476L327.758 648.092L336.367 587.308L317.284 574.452ZM263.638 448.543L263.639 448.544L260.994 460.285L254.933 449.896L254.934 449.894L254.933 449.895L232.194 453.407L214.117 512.074L237.523 508.037L237.66 508.016L246.352 478.77L253.818 492.144L239.315 556.536L264.264 552.682L270.545 522.107L285.762 549.366L310.712 545.512L277.45 488.494L280.534 473.485L297.645 498.745L297.782 498.724L321.316 495.509L286.379 445.03L263.639 448.543L263.638 448.543ZM280.978 339.429L280.977 339.431L271.065 346.258L273.668 334.513L273.67 334.511L254.585 321.655L201.489 352.464L221.417 365.388L221.531 365.467L247.766 349.891L244.17 364.78L189.811 402.219L210.748 416.324L236.115 398.135L228.786 428.483L249.723 442.588L264.001 378.14L276.455 369.21L271.874 399.376L271.989 399.453L291.452 413.068L300.061 352.285L280.978 339.429ZM227.332 213.521L227.333 213.522L224.688 225.263L218.627 214.873L218.628 214.872L218.626 214.872L195.887 218.385L177.81 277.051L201.217 273.015L201.354 272.993L210.046 243.747L217.512 257.121L203.009 321.513L227.957 317.659L234.239 287.084L249.456 314.343L274.406 310.488L241.144 253.471L244.227 238.462L261.339 263.722L261.476 263.7L285.009 260.485L250.073 210.008L227.333 213.521L227.332 213.521ZM244.671 104.405L244.671 104.408L234.759 111.234L237.361 99.4893L237.363 99.4879L218.279 86.6319L165.183 117.441L185.111 130.366L185.225 130.444L211.46 114.868L207.863 129.757L153.505 167.196L174.441 181.301L199.809 163.112L192.48 193.46L213.417 207.566L227.696 143.116L240.149 134.188L235.568 164.353L235.683 164.43L255.146 178.045L263.755 117.262L244.671 104.405ZM191.025 -21.5024L191.026 -21.5015L188.381 -9.7604L182.32 -20.1502L182.321 -20.1514L182.32 -20.1512L159.581 -16.6385L141.504 42.0274L164.911 37.9911L165.047 37.97L173.74 8.72387L181.206 22.0987L166.703 86.4902L191.651 82.6361L197.932 52.0608L213.15 79.3193L238.1 75.465L204.838 18.4481L207.921 3.43833L225.033 28.6981L225.169 28.677L248.703 25.462L213.766 -25.0154L191.026 -21.5025L191.025 -21.5024ZM208.365 -130.618L208.364 -130.615L198.452 -123.788L201.055 -135.534L201.057 -135.535L181.972 -148.392L128.876 -117.583L148.805 -104.658L148.919 -104.58L175.154 -120.156L171.557 -105.265L117.198 -67.8278L138.135 -53.7226L163.502 -71.9115L156.173 -41.5638L177.11 -27.4577L191.389 -91.9069L203.843 -100.836L199.262 -70.6695L199.376 -70.5938L218.839 -56.9787L227.448 -117.762L208.365 -130.618ZM154.719 -256.526L154.72 -256.525L152.075 -244.784L146.014 -255.174L146.015 -255.175L146.014 -255.175L123.275 -251.662L105.198 -192.996L128.604 -197.032L128.741 -197.053L137.434 -226.3L144.9 -212.925L130.396 -148.533L155.345 -152.387L161.626 -182.963L176.843 -155.704L201.793 -159.558L168.531 -216.575L171.615 -231.585L188.726 -206.325L188.863 -206.346L212.397 -209.561L177.46 -260.039L154.72 -256.526L154.719 -256.526ZM172.059 -365.642L172.058 -365.638L162.146 -358.812L164.749 -370.556L164.751 -370.558L145.666 -383.414L92.5699 -352.606L112.498 -339.681L112.612 -339.603L138.847 -355.179L135.251 -340.289L80.892 -302.851L101.829 -288.746L127.196 -306.935L119.867 -276.587L140.804 -262.481L155.083 -326.929L167.536 -335.858L162.955 -305.693L163.07 -305.616L182.533 -292.002L191.142 -352.784L172.059 -365.642ZM118.413 -491.549L118.414 -491.548L115.768 -479.807L109.708 -490.197L109.708 -490.198L109.707 -490.198L86.9683 -486.685L68.8912 -428.019L92.2978 -432.056L92.4347 -432.077L101.126 -461.323L108.593 -447.948L94.0898 -383.557L119.039 -387.411L125.32 -417.986L140.537 -390.726L165.487 -394.581L132.225 -451.599L135.308 -466.608L152.42 -441.349L152.557 -441.37L176.09 -444.585L141.154 -495.062L118.414 -491.549L118.413 -491.549ZM207.212 -406.936L207.212 -406.938L217.123 -413.764L214.522 -402.02L214.52 -402.018L214.521 -402.017L233.603 -389.162L233.604 -389.162L286.7 -419.972L266.773 -432.895L266.658 -432.973L240.423 -417.398L244.019 -432.287L298.377 -469.724L277.44 -483.83L252.075 -465.643L259.404 -495.989L238.466 -510.095L224.187 -445.648L211.735 -436.719L216.315 -466.883L216.2 -466.96L196.737 -480.573L188.127 -419.793L188.127 -419.792L207.21 -406.937L207.212 -406.936ZM260.857 -281.022L260.856 -281.024L263.501 -292.766L269.564 -282.374L269.563 -282.373L269.564 -282.373L292.303 -285.886L310.38 -344.553L286.973 -340.515L286.836 -340.494L278.144 -311.247L270.677 -324.623L285.182 -389.015L260.234 -385.16L253.952 -354.583L238.733 -381.844L213.784 -377.99L247.046 -320.972L243.963 -305.962L226.851 -331.222L226.713 -331.201L203.18 -327.987L238.117 -277.509L260.855 -281.021L260.857 -281.022ZM243.519 -171.907L243.519 -171.909L253.43 -178.735L250.829 -166.991L250.827 -166.99L250.828 -166.989L269.91 -154.133L269.911 -154.134L323.007 -184.943L303.08 -197.867L302.965 -197.945L276.73 -182.369L280.326 -197.259L334.684 -234.696L313.747 -248.802L288.383 -230.616L295.711 -260.96L274.773 -275.066L260.495 -210.62L248.042 -201.691L252.622 -231.855L252.507 -231.931L233.044 -245.546L224.434 -184.764L224.434 -184.763L243.517 -171.908L243.519 -171.907ZM297.164 -45.9982L297.162 -46.0001L299.808 -57.7422L305.87 -47.3505L305.869 -47.3494L305.87 -47.3495L328.609 -50.8622L346.686 -109.529L323.28 -105.492L323.143 -105.471L314.45 -76.2236L306.983 -89.5993L321.489 -153.991L296.54 -150.137L290.258 -119.559L275.039 -146.821L250.09 -142.967L283.352 -85.9488L280.269 -70.9391L263.157 -96.1999L263.02 -96.1786L239.486 -92.9636L274.424 -42.4853L297.162 -45.9979L297.164 -45.9982ZM279.825 63.1164L279.826 63.1141L289.736 56.2885L287.135 68.0323L287.133 68.0337L287.134 68.0346L306.217 80.8899L306.218 80.8897L359.314 50.08L339.386 37.1566L339.271 37.0778L313.037 52.6539L316.633 37.7647L370.991 0.327252L350.054 -13.779L324.688 4.40748L332.018 -25.9381L311.08 -40.0431L296.801 24.4029L284.348 33.3327L288.928 3.16873L288.813 3.09198L269.351 -10.5221L260.74 50.2592L260.741 50.2602L279.824 63.1155L279.825 63.1164ZM333.47 189.024L333.469 189.022L336.114 177.28L342.176 187.672L342.175 187.673L342.176 187.673L364.915 184.16L382.992 125.494L359.586 129.531L359.449 129.552L350.756 158.799L343.289 145.423L357.795 81.0323L332.846 84.8864L326.564 115.463L311.346 88.2025L286.397 92.0566L319.659 149.075L316.575 164.083L299.464 138.823L299.326 138.845L275.792 142.06L310.73 192.537L333.468 189.024L333.47 189.024ZM316.131 298.14L316.132 298.137L326.043 291.312L323.441 303.056L323.439 303.057L323.441 303.058L342.523 315.913L342.524 315.913L395.62 285.103L375.693 272.179L375.578 272.101L349.344 287.677L352.939 272.788L407.297 235.351L386.36 221.244L360.995 239.431L368.324 209.085L347.386 194.979L333.107 259.427L320.655 268.356L325.235 238.192L325.12 238.115L305.657 224.501L297.047 285.283L297.047 285.284L316.13 298.139L316.131 298.14ZM369.776 424.048L369.775 424.046L372.42 412.304L378.482 422.695L378.482 422.696L378.483 422.696L401.222 419.183L419.299 360.518L395.892 364.554L395.755 364.575L387.063 393.822L379.596 380.447L394.101 316.055L369.152 319.909L362.871 350.486L347.652 323.226L322.703 327.08L355.965 384.098L352.882 399.107L335.77 373.847L335.632 373.868L312.099 377.083L347.036 427.56L369.774 424.048L369.776 424.048ZM352.438 533.163L352.438 533.16L362.35 526.334L359.748 538.079L359.746 538.08L359.747 538.081L378.829 550.937L378.83 550.937L431.926 520.126L411.999 507.202L411.884 507.125L385.65 522.701L389.245 507.81L443.603 470.374L422.667 456.268L397.302 474.454L404.63 444.109L383.692 430.003L369.414 494.45L356.961 503.379L361.541 473.215L361.426 473.139L341.963 459.525L333.354 520.305L333.353 520.305L333.353 520.307L352.438 533.163ZM406.083 659.071L406.081 659.069L408.726 647.327L414.789 657.719L414.788 657.72L414.789 657.72L437.528 654.207L455.605 595.541L432.198 599.577L432.062 599.599L423.369 628.846L415.902 615.47L430.408 551.078L405.459 554.932L399.177 585.51L383.958 558.249L359.01 562.103L392.271 619.121L389.188 634.13L372.076 608.87L371.939 608.892L348.405 612.107L383.343 662.584L406.081 659.071L406.083 659.071ZM388.744 768.187L388.745 768.183L398.656 761.358L396.054 773.101L396.052 773.103L396.053 773.104L396.053 773.105L415.135 785.959L415.137 785.959L468.232 755.149L448.305 742.226L448.19 742.148L421.955 757.723L425.552 742.834L479.91 705.397L458.973 691.291L433.607 709.478L440.937 679.132L419.999 665.026L405.72 729.473L393.267 738.402L397.847 708.238L397.732 708.161L378.27 694.548L369.659 755.328L369.66 755.329L388.743 768.185L388.744 768.187ZM442.389 894.094L442.388 894.092L445.033 882.35L451.095 892.742L451.094 892.743L451.095 892.743L473.834 889.23L491.912 830.564L468.505 834.601L468.368 834.622L459.676 863.869L452.208 850.493L466.714 786.101L441.765 789.956L435.483 820.533L420.264 793.272L395.316 797.126L428.578 854.144L425.494 869.153L408.383 843.894L408.245 843.915L384.711 847.13L419.649 897.607L442.387 894.095L442.389 894.094ZM591.186 772.777L591.185 772.779L581.275 779.605L583.877 767.86L583.878 767.86L564.794 755.004L511.697 785.812L531.626 798.737L531.74 798.815L557.975 783.238L554.379 798.129L500.021 835.567L520.957 849.671L546.324 831.484L538.995 861.83L559.932 875.936L574.212 811.488L586.664 802.559L582.083 832.725L582.198 832.801L601.66 846.416L610.271 785.633L591.186 772.777ZM537.54 646.863L537.541 646.864L534.896 658.606L528.834 648.215L528.835 648.214L528.834 648.214L506.095 651.727L488.018 710.394L511.425 706.357L511.562 706.335L520.254 677.089L527.72 690.464L513.216 754.856L538.166 751.002L544.447 720.426L559.665 747.686L584.614 743.832L551.352 686.815L554.436 671.804L571.547 697.064L571.684 697.042L595.218 693.828L560.28 643.35L537.541 646.863L537.54 646.863ZM554.879 537.748L554.878 537.751L544.968 544.576L547.57 532.831L547.571 532.831L528.486 519.975L475.39 550.784L495.319 563.708L495.433 563.786L521.668 548.21L518.072 563.1L463.713 600.539L484.65 614.644L510.016 596.455L502.688 626.802L523.625 640.908L537.903 576.46L550.357 567.531L545.776 597.696L545.891 597.773L565.353 611.388L573.963 550.605L554.879 537.748ZM501.234 411.84L501.235 411.84L498.59 423.583L492.528 413.192L492.529 413.191L492.528 413.191L469.789 416.704L451.712 475.371L475.119 471.333L475.256 471.312L483.948 442.066L491.413 455.441L476.91 519.832L501.86 515.978L508.141 485.403L523.358 512.662L548.307 508.808L515.045 451.791L518.13 436.78L535.241 462.041L535.378 462.02L558.912 458.805L523.974 408.327L501.235 411.84L501.234 411.84ZM518.573 302.725L518.572 302.727L508.661 309.553L511.264 297.808L511.265 297.808L492.18 284.952L439.084 315.76L459.012 328.685L459.126 328.764L485.361 313.187L481.766 328.077L427.407 365.515L448.344 379.62L473.71 361.432L466.382 391.779L487.319 405.884L501.597 341.436L514.05 332.508L509.469 362.673L509.584 362.749L529.047 376.365L537.657 315.581L518.573 302.725ZM464.928 176.817L464.929 176.818L462.284 188.56L456.222 178.17L456.222 178.168L456.221 178.169L433.482 181.681L415.405 240.347L438.813 236.311L438.95 236.29L447.641 207.044L455.107 220.418L440.604 284.809L465.553 280.955L471.835 250.38L487.052 277.639L512.001 273.785L478.739 216.768L481.823 201.757L498.935 227.018L499.072 226.997L522.605 223.782L487.668 173.304L464.929 176.817L464.928 176.817ZM482.266 67.7017L482.266 67.7039L472.355 74.5295L474.957 62.7845L474.958 62.7843L455.874 49.9282L402.778 80.737L422.706 93.6623L422.82 93.7402L449.055 78.1639L445.46 93.0532L391.101 130.492L412.038 144.597L437.404 126.408L430.076 156.756L451.013 170.862L465.292 106.413L477.744 97.4841L473.163 127.649L473.278 127.726L492.741 141.341L501.351 80.5578L482.266 67.7017ZM428.621 -58.2062L428.623 -58.2053L425.977 -46.4632L419.915 -56.8538L419.916 -56.855L419.915 -56.8548L397.176 -53.3421L379.099 5.32375L402.507 1.28734L402.643 1.26619L411.335 -27.9797L418.802 -14.6051L404.297 49.7866L429.247 45.9323L435.528 15.357L450.746 42.6155L475.695 38.7614L442.433 -18.2556L445.517 -33.2665L462.629 -8.00566L462.765 -8.02681L486.299 -11.2418L451.361 -61.719L428.622 -58.2063L428.621 -58.2062ZM445.96 -167.322L445.959 -167.318L436.049 -160.493L438.651 -172.239L438.652 -172.239L419.567 -185.095L366.471 -154.286L386.4 -141.361L386.514 -141.283L412.749 -156.859L409.152 -141.969L354.794 -104.532L375.731 -90.4264L401.097 -108.615L393.769 -78.2676L414.706 -64.1614L428.985 -128.611L441.438 -137.539L436.857 -107.373L436.971 -107.297L456.434 -93.6823L465.044 -154.466L445.96 -167.322ZM392.315 -293.23L392.316 -293.229L389.671 -281.487L383.609 -291.877L383.61 -291.878L383.609 -291.878L360.87 -288.366L342.793 -229.7L366.2 -233.736L366.337 -233.757L375.029 -263.003L382.496 -249.629L367.991 -185.237L392.941 -189.091L399.222 -219.666L414.439 -192.408L439.388 -196.262L406.126 -253.279L409.21 -268.29L426.322 -243.029L426.459 -243.05L449.993 -246.265L415.055 -296.742L392.316 -293.23L392.315 -293.23ZM409.654 -402.345L409.653 -402.342L399.742 -395.516L402.345 -407.261L402.346 -407.261L383.261 -420.118L330.165 -389.31L350.093 -376.385L350.207 -376.307L376.442 -391.883L372.847 -376.993L318.488 -339.555L339.425 -325.45L364.791 -343.637L357.463 -313.291L378.4 -299.185L392.679 -363.633L405.13 -372.562L400.55 -342.397L400.665 -342.32L420.128 -328.706L428.738 -389.488L409.654 -402.345Z" fill="#2261FE" fill-opacity="0.5"/>
</g>
</g>
<defs>
<clipPath id="clip0_1458_3359">
<rect width="1066.03" height="666.267" fill="white" transform="translate(409.457 -358) rotate(81.2184)"/>
</clipPath>
</defs>
</svg>
